<svg width="32" height="32" viewBox="0 0 32 32" fill="none" xmlns="http://www.w3.org/2000/svg">
<path d="M20.2669 22.4V30.9333L24.5336 27.7333L28.8002 30.9333V22.4M30.9336 10.6667V3.19998C30.9336 2.02178 29.9784 1.06665 28.8002 1.06665H3.20023C2.02202 1.06665 1.06689 2.02178 1.06689 3.19998V28.8C1.06689 29.9782 2.02202 30.9333 3.20023 30.9333H17.0669M6.40023 9.59998H17.0669M6.40023 16H12.8002M24.5336 24.5333C20.9989 24.5333 18.1336 21.6679 18.1336 18.1333C18.1336 14.5987 20.9989 11.7333 24.5336 11.7333C28.0682 11.7333 30.9336 14.5987 30.9336 18.1333C30.9336 21.6679 28.0682 24.5333 24.5336 24.5333Z" stroke="#fff" stroke-width="1.5" stroke-linejoin="round"/>
</svg>
