<?xml version="1.0" encoding="UTF-8"?>
<svg id="Layer_2" data-name="Layer 2" xmlns="http://www.w3.org/2000/svg" xmlns:xlink="http://www.w3.org/1999/xlink" viewBox="0 0 1681.77 357.57">
  <defs>
    <style>
      .cls-1 {
        mask: url(#mask);
      }

      .cls-2 {
        mask: url(#mask-1);
      }

      .cls-3 {
        fill: #fff;
        stroke-width: 0px;
      }
    </style>
    <mask id="mask" x="-1.99" y="0" width="1683.76" height="357.57" maskUnits="userSpaceOnUse">
      <g id="b">
        <path id="a" class="cls-3" d="m-1.99,0h1681.64v357.45H-1.99"/>
      </g>
    </mask>
    <mask id="mask-1" x="0" y="0" width="1681.77" height="357.45" maskUnits="userSpaceOnUse">
      <g id="d">
        <path id="c" class="cls-3" d="m.13,0h1681.64v357.45H.13"/>
      </g>
    </mask>
  </defs>
  <g id="Layer_1-2" data-name="Layer 1">
    <g>
      <g class="cls-1">
        <path class="cls-3" d="m488.66,96c-.88-2.77-3.45-4.66-6.36-4.66h-62.24c-2.91,0-5.48,1.88-6.36,4.66l-78.53,249.05c-.64,2.03-.28,4.23.98,5.95,1.26,1.71,3.25,2.72,5.38,2.72h42.85c2.96,0,5.56-1.95,6.39-4.79l54.08-183.16s1.41-4.57,6.31-4.57,6.19,4.76,6.19,4.76l25.09,86.84h-33.7c-2.99,0-5.61,1.99-6.42,4.86l-9.67,34.39c-1,3.54,1.05,7.22,4.59,8.22.59.17,1.21.25,1.83.25h57.4l15.11,48.5c.87,2.79,3.45,4.68,6.37,4.68h42.87c3.69,0,6.67-3,6.67-6.68,0-.68-.1-1.35-.31-1.99l-78.53-249.05m186.7,219.35c-.28-1.86-1.34-3.51-2.9-4.55-1.56-1.05-3.49-1.38-5.31-.93-6.96,1.73-13.62,2.68-18.76,2.68-9.75,0-14.1-4.23-14.1-13.71v-95.42h38.26c3.68,0,6.67-2.99,6.67-6.67v-29.76c0-3.68-2.99-6.67-6.67-6.67h-38.27v-45.95c0-3.68-2.98-6.67-6.67-6.67-.31,0-.62.02-.93.06l-39.4,5.49c-3.3.46-5.75,3.28-5.75,6.61v40.46h-21.46c-3.68,0-6.67,2.98-6.67,6.67v29.76c0,3.68,2.99,6.67,6.67,6.67h21.46v101.58c0,34.89,18.34,52.57,54.5,52.57,10.29,0,27.77-2.37,39.2-6.34,3.03-1.05,4.88-4.11,4.4-7.28l-4.3-28.6m72.94-228.86h-39.4c-3.68,0-6.67,2.99-6.67,6.67h0v253.91c0,3.68,2.99,6.67,6.67,6.67h39.4c3.68,0,6.67-2.99,6.67-6.67V93.15c0-3.69-2.99-6.67-6.67-6.67m127.74,196.34v23.2c-6.53,3.48-18.36,8.46-32.6,8.46-12.28,0-16.02-3.74-16.02-16.03s2.32-15.64,16.8-15.64h31.83Zm-26.43-126.35c-19.95,0-44.22,3.14-61.84,8.02-3.28.9-5.35,4.13-4.81,7.49l4.61,28.6c.29,1.78,1.28,3.37,2.77,4.4,1.48,1.04,3.32,1.43,5.09,1.08,16.38-3.18,33.3-4.94,47.62-4.94,28.44,0,32.98,6,32.98,25.27v16.8h-42.23c-40.36,0-57.59,16.65-57.59,55.66s18.88,58.73,51.8,58.73c19.04,0,38.11-5.29,54.14-14.95l1.68,6.18c.79,2.9,3.43,4.92,6.44,4.92h31.82c3.68,0,6.67-2.99,6.67-6.67v-119.9c0-51.53-21.46-70.69-79.17-70.69h0Zm177.89,77.56c-24.45-6.3-24.45-6.56-24.45-19.97,0-9.01.89-13.33,21.03-13.33,13.8,0,34.15,2.41,47.23,4.65,1.8.31,3.64-.13,5.1-1.23,1.46-1.09,2.42-2.72,2.64-4.53l3.71-30.03c.42-3.39-1.78-6.54-5.11-7.32-15.12-3.52-36.15-5.8-53.58-5.8-60.59,0-73,22.87-73,57.2,0,37.75,7.01,50.43,53.45,61.74,30.57,7.36,30.57,12.83,30.57,21.89,0,11.9-1.02,16.02-21.03,16.02-16.11,0-34.76-2.51-51.17-6.88-3.56-.95-7.21,1.17-8.16,4.73-.05.17-.08.34-.12.52l-5.21,28.49c-.6,3.29,1.32,6.51,4.5,7.54,17.89,5.81,43.58,9.85,62.46,9.85,58.66,0,70.69-24.56,70.69-61.44,0-40.72-7.23-48.27-59.57-62.12m152.23,0c-24.45-6.3-24.45-6.56-24.45-19.97,0-9.01.89-13.33,21.03-13.33,13.8,0,34.15,2.41,47.23,4.65,1.8.31,3.64-.13,5.1-1.23,1.46-1.09,2.42-2.72,2.64-4.53l3.71-30.03c.42-3.39-1.78-6.54-5.1-7.32-15.12-3.52-36.16-5.8-53.58-5.8-60.59,0-73,22.87-73,57.2,0,37.75,7.01,50.43,53.45,61.74,30.57,7.36,30.57,12.83,30.57,21.89,0,11.9-1.02,16.02-21.03,16.02-16.11,0-34.76-2.51-51.17-6.88-1.8-.48-3.72-.18-5.29.81-1.57.99-2.66,2.6-2.99,4.43l-5.21,28.49c-.6,3.29,1.32,6.52,4.5,7.54,17.89,5.81,43.58,9.85,62.46,9.85,58.66,0,70.69-24.56,70.69-61.44,0-40.72-7.23-48.27-59.57-62.12m129.62-73.7h-39.4c-3.68,0-6.67,2.98-6.67,6.67v180.07c0,3.68,2.99,6.67,6.67,6.67h39.4c3.68,0,6.67-2.99,6.67-6.67h0v-180.07c0-3.68-2.99-6.67-6.67-6.67m128.73,122.5v23.2c-6.53,3.48-18.36,8.46-32.6,8.46-12.28,0-16.02-3.74-16.02-16.03s2.32-15.64,16.79-15.64h31.83Zm-26.43-126.35c-19.95,0-44.22,3.14-61.84,8.02-3.28.9-5.35,4.13-4.81,7.49l4.61,28.6c.29,1.78,1.29,3.37,2.77,4.4,1.48,1.04,3.31,1.43,5.09,1.08,16.38-3.18,33.29-4.94,47.62-4.94,28.44,0,32.98,6,32.98,25.27v16.8h-42.23c-40.36,0-57.58,16.65-57.58,55.66s18.88,58.73,51.8,58.73c19.04,0,38.11-5.29,54.14-14.95l1.69,6.18c.79,2.9,3.43,4.92,6.44,4.92h31.82c3.68,0,6.67-2.99,6.67-6.67h0v-119.9c0-51.53-21.46-70.69-79.17-70.69h0Zm224.89,0c-20.88,0-49.32,7.2-73.35,18.48l-2.88-9.83c-.83-2.84-3.44-4.79-6.4-4.79h-29.18c-3.68,0-6.67,2.98-6.67,6.67v180.07c0,3.68,2.99,6.67,6.67,6.67h39.4c3.68,0,6.67-2.99,6.67-6.67h0v-124.71c14.19-7.22,34.14-14.68,46.09-14.68,8.87,0,12.17,3.3,12.17,12.17v127.22c0,3.68,2.98,6.67,6.67,6.67h39.4c3.68,0,6.67-2.99,6.67-6.67h0v-132.23c0-38.72-15.22-58.36-45.25-58.36m-329.3-70h-39.4c-3.68,0-6.67,2.99-6.67,6.67h0v34.83c0,3.68,2.99,6.67,6.67,6.67h39.4c3.68,0,6.67-2.99,6.67-6.67h0v-34.83c0-3.68-2.99-6.67-6.67-6.67h0"/>
      </g>
      <g class="cls-2">
        <path class="cls-3" d="m321.77,87.6c-1.26-.96-2.8-1.48-4.39-1.48-.87,0-1.74.16-2.57.48-15.6,5.96-31.44,10.49-45.9,13.86-2.95.69-5.33,2.88-6.32,5.51-10.53,28.86-37.43,56.33-65.65,85.11-1.13,1.08-2.72,2.49-5.3,2.49s-4.15-1.38-5.3-2.49c-28.22-28.78-55.12-56.15-65.65-85.02-.99-2.63-3.37-4.82-6.32-5.51-14.47-3.37-30.35-8.04-45.93-14-.82-.32-1.7-.48-2.58-.48-1.57,0-3.1.51-4.35,1.47-1.97,1.5-3.02,3.91-2.8,6.37,2.39,23.99,11.87,47.45,28.98,72.04,16.08,23.11,37.06,44.5,57.35,65.19,37.37,38.12,72.68,74.12,75.78,115.87.28,3.77,3.42,6.69,7.2,6.68h43.91c3.99,0,7.23-3.25,7.22-7.24,0-.11,0-.22,0-.34-1.38-27.91-11.89-55.86-32.11-85.45-4.27-6.22-8.79-12.27-13.53-18.14-1.93-2.41-1.12-5.4.36-6.9,1.45-1.49,2.92-2.98,4.39-4.49,20.29-20.69,41.26-42.08,57.35-65.19,17.11-24.58,26.59-47.9,28.98-71.89.24-2.41-.86-4.97-2.8-6.45M385.73,3.68c-1.73-2.31-4.45-3.68-7.34-3.68-1.48,0-2.95.37-4.23,1.07-53.82,29.46-116.21,45.04-180.42,45.06-64.21-.02-126.6-15.6-180.42-45.06C12.03.37,10.58,0,9.1,0,6.22,0,3.48,1.38,1.76,3.68-.78,7.06-.86,12.75,3.47,16.13c26.96,20.09,56.67,35.78,88.31,46.51,32.8,11.13,67.1,16.78,101.95,16.8h.03c34.85-.01,69.15-5.67,101.95-16.8,31.65-10.73,61.36-26.42,88.35-46.54,4.3-3.36,4.22-9.05,1.68-12.42m-241.22,259.93c-1.04-1.09-2.56-2.2-5.12-2.2-3.28,0-5.22,2.27-5.96,3.39-18.47,28.1-28.01,54.63-29.33,81.28-.1,1.96.63,3.92,1.99,5.36,1.37,1.43,3.27,2.24,5.25,2.24h43.84c3.77,0,6.95-2.95,7.22-6.71.95-12.84,4.95-25.72,12.23-39.26,2.52-4.68.56-9.08-.89-10.96-7.22-9.4-16.07-19.42-29.24-33.15m47.16-154.5c13.76,0,21.74-.83,24.55-.83,3.39,0,6.64,2.78,6.64,6.68,0,1.14-.27,1.95-.54,2.67-1.83,4.88-10.14,22.43-25.63,37.49-1.74,1.69-3.71,2-5.06,2h-.02c-1.35,0-3.32-.32-5.05-2-15.49-15.06-23.81-32.61-25.63-37.49-.27-.72-.54-1.53-.54-2.67,0-3.9,3.25-6.68,6.64-6.68,2.81,0,10.78.83,24.54.83h.09"/>
      </g>
    </g>
  </g>
</svg>