<?xml version="1.0" encoding="UTF-8"?>
<svg id="Layer_2" data-name="Layer 2" xmlns="http://www.w3.org/2000/svg" viewBox="0 0 498.45 76.35">
  <defs>
    <style>
      .cls-1 {
        fill: #fff;
        stroke-width: 0px;
      }
    </style>
  </defs>
  <g id="katman_1" data-name="katman 1">
    <path class="cls-1" d="m190.95,54.98l-16.2-32.4c-.8-1.6-2.4-2.5-4.2-2.6h-8.4c-1.8,0-3.4,1-4.2,2.6l-16.1,32.4c-.2.4-.1.9.3,1.1.1.1.3.1.4.1h7.2c.4,0,.9-.2,1.1-.6l3.6-7.1h23.9l3.6,7.1c.2.4.6.7,1.1.6h7.2c.5-.1.8-.5.8-1,0,0,0-.1-.1-.2Zm-32.9-13.7l6.7-13.5c.2-.3.5-.5.8-.5h1.7c.3,0,.7.2.8.5l6.7,13.6-16.7-.1Zm340.4-20.4v5.5c0,.5-.4.9-.9.9h-14.6v32.8c0,.3-.3.6-.6.6-.2,0-.3-.1-.4-.2l-7.3-6.2c-.6-.5-.9-1.2-.9-1.9v-25.2h-11.6c-.7,0-1.3-.4-1.6-1l-2.8-5.6c-.1-.2,0-.5.2-.6.1,0,.1-.1.2-.1h39.3c.5.1,1,.5,1,1Zm-78.4,7v6.7h26.7c2,.1,3.6,1.7,3.5,3.7-.1,1.9-1.6,3.4-3.5,3.5h-26.7v5c0,1.3,1,2.3,2.3,2.3h30c.5,0,.9.4.9.9v5.5c0,.5-.4.8-.9.9h-32.5c-5.1,0-9.2-4.1-9.2-9.2v-22.4c0-2.5,2.1-4.6,4.6-4.6h37.1c.5,0,.9.4.9.9v5.5c0,.5-.4.8-.9.9h-31.8c-.2-.2-.5,0-.5.4Zm-17.2-6.8v31.8c0,2.5-2,4.5-4.5,4.5-1.1,0-2.1-.4-2.9-1.1l-28-23.8v22.7c0,.6-.5,1.1-1.1,1.1h-7.1c-.6,0-1.2-.5-1.2-1.1v-31.7c0-2.5,2-4.5,4.5-4.5,1.1,0,2.1.4,2.9,1.1l28,23.8v-22.7c0-.6.5-1.2,1.1-1.2h7.1c.7,0,1.2.5,1.2,1.1h0Zm-50.8,17c0,2.5-2,4.6-4.6,4.6s-4.6-2-4.6-4.6,2-4.6,4.6-4.6c2.6.1,4.6,2.1,4.6,4.6h0Zm-36.5-10.2v6.7h18.5c2,.1,3.6,1.7,3.5,3.7-.1,1.9-1.6,3.4-3.5,3.5h-18.5v5c0,1.3,1,2.3,2.3,2.3h30c.5,0,.9.4.9.9v5.5c0,.5-.4.9-.9.9h-32.5c-5.1,0-9.2-4.1-9.2-9.2v-22.4c0-2.5,2.1-4.6,4.6-4.6h37.1c.5,0,.9.4.9.9v5.5c0,.5-.4.9-.9.9h-31.8c-.3-.2-.5,0-.5.4h0Zm-13.3,22v5.5c0,.5-.4.9-.9.9h-26.1c-5.1,0-9.2-4.1-9.2-9.2v-26.1c0-.5.4-.9.9-.9h7.7c.5,0,.9.4.9.9v25.8c0,1.3,1,2.3,2.3,2.3h23.6c.5-.1.8.3.8.8h0Zm-41.1-29v5.5c0,.5-.4.9-.9.9h-13.6v32.8c0,.3-.3.6-.6.6-.1,0-.3-.1-.4-.1l-7.3-6.2c-.6-.5-.9-1.2-.9-1.9v-25.3h-8.8c-.7,0-1.3-.4-1.6-1l-2.8-5.6c-.1-.2.1-.6.4-.6h35.7c.4,0,.8.4.8.9Zm-129.2,16.9c1.7-.6,5.1-2.3,5.1-6.9,0-7.9-5.9-10.9-12.9-10.9h-26.9c-.5,0-.9.4-.9.9v34.5c0,.5.4.9.9.9h30.3c4.4-.1,10.8-2.6,10.8-10.7,0-5.2-4.6-7.3-6.4-7.8Zm-26.4-10c0-.3.2-.5.5-.6h16.7c1.7,0,5.6,0,5.6,3.6s-3.9,3.6-5.6,3.6h-17.2v-6.6h0Zm19.3,21.1h-18.7c-.3,0-.5-.2-.6-.5v-6.7h19.2c1.9,0,4.9,0,4.9,3.6,0,3.8-3.4,3.6-4.8,3.6Zm94.8-28v5.5c0,.5-.4.9-.9.9h-10.7v32.8c0,.3-.3.6-.6.6-.1,0-.3-.1-.4-.1l-7.3-6.2c-.6-.5-.9-1.2-.9-1.9v-25.3h-11.6c-.7,0-1.3-.4-1.6-1l-2.8-5.6c-.1-.2.1-.5.3-.6h35.5c.6,0,1,.4,1,.9Zm-157.2,5.1c-10-4.6-24.4-7.5-37.9-6.5.7-4.5,2.3-7.6,5.1-8.2,3.8-.9,7.9,1.6,11.8,6.1,2.6.3,5.6.9,7.7,1.4C41.95,5.28,32.35-2.22,25.05.58c-5.6,2.1-8.4,9.8-8.1,20-7.2,1.5-12.9,4.3-16.5,8.2-.2.2-.6.7-.4,1,.1.2.5,0,.6-.1,4.2-2.9,9.6-4.5,16.5-5.5,1,11,5.6,24.9,13.3,36-4.2,1.7-7.7,1.8-9.7-.3-2.7-2.8-2.6-7.6-.6-13.3-1-2.4-2-5.3-2.6-7.4-8.1,12.9-9.8,25-3.7,29.9,4.6,3.7,12.6,2.4,21.4-3,4.9,5.5,10.1,9,15.4,10.2.3.1.9.1,1.1-.1.1-.2-.3-.4-.4-.5-4.6-2.2-8.7-6-13-11.6,9-6.3,18.7-17.3,24.5-29.5,3.5,2.8,5.4,5.8,4.6,8.5-1.1,3.7-5.3,6-11.2,7.2-1.6,2.1-3.6,4.4-5.1,6,15.2.5,26.6-4,27.8-11.7.9-5.9-4.3-12.1-13.4-17,2.3-7,2.7-13.3,1.1-18.4-.1-.3-.3-.9-.6-.9-.2,0-.2.4-.2.6.5,5.1-.8,10.5-3.4,17.1Zm-28,32.4c-6.4-10.3-10.1-22.5-10.1-34.8h0c12.2-.4,24.6,2.5,35.2,8.6h0c-5.8,10.8-14.5,20.1-25.1,26.2h0Z"/>
  </g>
</svg>