<?xml version="1.0" encoding="UTF-8"?>
<svg id="Layer_2" data-name="Layer 2" xmlns="http://www.w3.org/2000/svg" viewBox="0 0 1000 224.72">
  <defs>
    <style>
      .cls-1 {
        fill: #fff;
        fill-rule: evenodd;
        stroke-width: 0px;
      }
    </style>
  </defs>
  <g id="svg835">
    <path id="path833" class="cls-1" d="m814.19,67.39c3.82,6.59,5.07,14.1,5.49,22.53l.54,11.24v78.62l.55,11.26c1.11,18.38,14.66,31.97,33.19,33.13l11.2.55v-123.56l.55-11.24c.46-8.34,1.7-15.99,5.58-22.63,12.45-21.45,39.93-28.74,61.38-16.29,6.8,3.95,12.45,9.61,16.37,16.43,3.82,6.59,5.01,14.24,5.47,22.49l.55,11.21v78.66l.55,11.26c1.16,18.48,14.61,32.07,33.19,33.13l11.2.55V89.92C1000,40.29,959.77.04,910.14.02c-25.81-.03-50.38,11.07-67.42,30.45C825.66,11.1,801.1,0,775.29.01c-18.66,0-35.98,5.66-50.33,15.44C716.21,5.69,696.62.01,685.38.01v224.71l11.24-.55c18.81-1.24,32.4-14.46,33.13-33.13l.6-11.26v-78.62l.55-11.24c.47-8.48,1.65-15.94,5.49-22.58,8.06-13.86,22.87-22.38,38.9-22.39,16.04,0,30.86,8.55,38.9,22.44ZM44.94,224.18l11.24.54h168.53l-.55-11.21c-1.52-18.48-14.61-31.97-33.14-33.18l-11.24-.55h-101.11L213.47,44.94l-.55-11.2c-.87-18.66-14.51-32.15-33.14-33.18l-11.24-.51L0,.01l.55,11.24c1.47,18.3,14.75,32.08,33.13,33.14l11.26.55h101.11L11.24,179.8l.55,11.24c1.11,18.52,14.48,31.94,33.14,33.13h0ZM641.27,32.9c43.88,43.87,43.89,115.01.02,158.89,0,0-.01.01-.02.02-43.9,43.86-115.04,43.86-158.94,0-43.88-43.88-43.88-115.03,0-158.9C503.38,11.84,531.94,0,561.73,0c29.83-.02,58.45,11.82,79.54,32.92h0Zm-31.79,31.82c26.32,26.34,26.32,69.01,0,95.35-26.34,26.32-69.01,26.32-95.35,0-26.32-26.34-26.32-69.01,0-95.35,26.34-26.32,69.01-26.32,95.35,0ZM325.91,0c29.78,0,58.35,11.85,79.4,32.92,43.89,43.86,43.89,115.03,0,158.89-43.9,43.86-115.04,43.86-158.94,0-43.88-43.88-43.88-115.03,0-158.9C267.43,11.84,295.99,0,325.77,0h.14Zm47.6,64.7c26.32,26.34,26.32,69.02,0,95.36-26.34,26.32-69.01,26.32-95.35,0-26.32-26.34-26.32-69.01,0-95.35,26.34-26.32,69.01-26.32,95.35,0h0Z"/>
  </g>
</svg>