<?xml version="1.0" encoding="UTF-8"?>
<svg id="Layer_2" data-name="Layer 2" xmlns="http://www.w3.org/2000/svg" viewBox="0 0 2500 474.69">
  <defs>
    <style>
      .cls-1 {
        fill: #fff;
        stroke-width: 0px;
      }
    </style>
  </defs>
  <g id="Layer_1-2" data-name="Layer 1">
    <path class="cls-1" d="m1527.37,89.81v311.71h87.96V89.81h-87.96Zm-692.1-.53v311.97h88.76v-242.23l69.21.26c22.72,0,38.57,5.55,49.4,17.17,14,14.79,19.55,38.83,19.55,82.42v142.38h86.12v-172.23c0-123.1-78.46-139.74-155.06-139.74h-157.97Zm833.95.53v311.71h142.65c76.08,0,100.91-12.68,127.59-40.94,19.02-19.81,31.17-63.66,31.17-111.48,0-43.85-10.3-82.95-28.53-107.25-32.23-43.59-79.25-52.04-149.51-52.04h-123.36Zm87.17,67.62h37.77c54.95,0,90.34,24.57,90.34,88.49s-35.4,88.76-90.34,88.76h-37.77v-177.25Zm-355.82-67.62l-73.44,246.99-70.27-246.99h-95.1l100.38,311.71h126.8l101.44-311.71h-89.81Zm611.26,311.71h87.96V89.81h-87.96v311.71Zm246.72-311.71l-122.83,311.44h86.64l19.55-55.21h145.29l18.49,54.95h94.3l-123.89-311.18h-117.55Zm57.06,56.79l53.36,145.82h-108.31l54.95-145.82Z"/>
    <path class="cls-1" d="m267.59,141.59v-42.79c4.23-.26,8.45-.53,12.68-.53,117.29-3.7,194.16,100.91,194.16,100.91,0,0-82.95,115.17-171.97,115.17-11.89,0-23.51-1.85-34.6-5.55v-129.97c45.7,5.55,54.95,25.62,82.15,71.32l61.02-51.25s-44.64-58.38-119.66-58.38c-7.92-.26-15.85.26-23.77,1.06m0-141.59v63.93l12.68-.79c162.99-5.55,269.44,133.66,269.44,133.66,0,0-122.04,148.46-249.1,148.46-11.09,0-21.93-1.06-32.76-2.91v39.62c8.98,1.06,18.23,1.85,27.21,1.85,118.34,0,203.93-60.49,286.88-131.82,13.74,11.09,70,37.77,81.63,49.4-78.72,66.04-262.31,119.14-366.39,119.14-10.04,0-19.55-.53-29.06-1.58v55.74h449.6V0h-450.13Zm0,308.8v33.81c-109.36-19.55-139.74-133.4-139.74-133.4,0,0,52.57-58.11,139.74-67.62v36.98h-.26c-45.7-5.55-81.63,37.25-81.63,37.25,0,0,20.34,72.12,81.89,92.98m-194.16-104.34s64.72-95.63,194.42-105.66v-34.87C124.15,75.55,0,197.06,0,197.06c0,0,70.27,203.4,267.59,221.89v-36.98c-144.76-17.96-194.16-177.51-194.16-177.51h0Z"/>
  </g>
</svg>