<?xml version="1.0" encoding="UTF-8"?>
<svg id="Layer_2" data-name="Layer 2" xmlns="http://www.w3.org/2000/svg" viewBox="0 0 463.9 139.9">
  <defs>
    <style>
      .cls-1 {
        fill: #fff;
        stroke-width: 0px;
      }
    </style>
  </defs>
  <g id="katman_1" data-name="katman 1">
    <g>
      <path class="cls-1" d="m69.7,0C33,0,2.9,28.3,0,64.3l37.5,15.5c3.2-2.2,7-3.4,11.1-3.4h1.1l16.7-24.2v-.3c0-14.5,11.8-26.4,26.4-26.4s26.4,11.8,26.4,26.4-11.8,26.4-26.4,26.4h-.6l-23.8,17v.9c0,10.9-8.9,19.8-19.8,19.8-9.6,0-17.6-6.8-19.4-15.9l-26.8-11.1c8.3,29.4,35.3,50.9,67.3,50.9,38.6,0,69.9-31.3,69.9-69.9,0-38.7-31.3-70-69.9-70"/>
      <path class="cls-1" d="m43.8,106.1l-8.6-3.5c1.5,3.2,4.2,5.8,7.7,7.3,7.6,3.1,16.3-.4,19.4-8,1.5-3.7,1.5-7.7,0-11.4-1.5-3.7-4.4-6.5-8-8.1-3.6-1.5-7.5-1.5-10.9-.2l8.9,3.7c5.6,2.3,8.2,8.7,5.9,14.3-2.4,5.6-8.8,8.3-14.4,5.9"/>
      <path class="cls-1" d="m110.3,51.9c0-9.7-7.9-17.6-17.6-17.6s-17.6,7.9-17.6,17.6,7.9,17.6,17.6,17.6,17.6-7.9,17.6-17.6m-30.7,0c0-7.3,5.9-13.2,13.2-13.2s13.2,5.9,13.2,13.2-5.9,13.2-13.2,13.2-13.2-5.9-13.2-13.2"/>
      <path class="cls-1" d="m214.3,47.9l-4.7,8.2c-3.6-2.5-8.5-4-12.8-4-4.9,0-7.9,2-7.9,5.6,0,4.4,5.4,5.4,13.3,8.3,8.6,3,13.5,6.6,13.5,14.4,0,10.7-8.4,16.8-20.6,16.8-5.9,0-13.1-1.5-18.5-4.9l3.4-9.1c4.5,2.4,9.8,3.7,14.5,3.7,6.4,0,9.5-2.4,9.5-5.9,0-4-4.6-5.2-12.1-7.7-8.5-2.9-14.5-6.6-14.5-15.3,0-9.8,7.8-15.4,19.1-15.4,7.9.1,14.3,2.6,17.8,5.3"/>
      <polygon class="cls-1" points="250.9 53.1 250.9 96.3 239.9 96.3 239.9 53.1 223.9 53.1 223.9 43.6 266.9 43.6 266.9 53.1 250.9 53.1"/>
      <polygon class="cls-1" points="290.1 53.1 290.1 64.9 311.2 64.9 311.2 74.4 290.1 74.4 290.1 86.8 314.6 86.8 314.6 96.3 279.1 96.3 279.1 43.6 314.6 43.6 314.6 53.1 290.1 53.1"/>
      <path class="cls-1" d="m339.2,86.1l-3.5,10.2h-11.6l19.8-52.7h11.1l20.3,52.7h-12l-3.6-10.2h-20.5Zm10.2-29.9l-7.2,21.1h14.6l-7.4-21.1Z"/>
      <polygon class="cls-1" points="432 64 417.6 94.8 411.3 94.8 397.2 64.3 397.2 96.3 386.6 96.3 386.6 43.6 397.1 43.6 414.8 81.7 431.9 43.6 442.6 43.6 442.6 96.3 432 96.3 432 64"/>
      <path class="cls-1" d="m463.9,50.3c0,4.5-3.4,7.3-7.3,7.3s-7.3-2.8-7.3-7.3,3.4-7.3,7.3-7.3c3.9-.1,7.3,2.7,7.3,7.3m-13.4,0c0,3.8,2.7,6.2,6.1,6.2s6.1-2.4,6.1-6.2-2.7-6.1-6.1-6.1c-3.3-.1-6.1,2.3-6.1,6.1m6.2-3.8c1.9,0,2.5,1,2.5,2.1,0,1-.6,1.7-1.3,2l1.7,3.2h-1.4l-1.4-2.8h-1.5v2.8h-1.2v-7.2h2.6v-.1Zm-1.4,3.4h1.3c.8,0,1.3-.5,1.3-1.2s-.4-1.1-1.3-1.1h-1.3v2.3h0Z"/>
    </g>
  </g>
</svg>