<?xml version="1.0" encoding="UTF-8"?>
<svg id="Layer_2" data-name="Layer 2" xmlns="http://www.w3.org/2000/svg" viewBox="0 0 2494.88 905.15">
  <defs>
    <style>
      .cls-1 {
        fill: #fff;
        stroke-width: 0px;
      }
    </style>
  </defs>
  <g id="Layer_1-2" data-name="Layer 1">
    <path class="cls-1" d="m2477.84,303.2c-52.21-29.29-73.28-39.94-104.18-39.94-28.57,0-42.34,14.64-42.34,37.28,0,67.89,163.55,49.25,163.55,207.66,0,86.51-47.69,138.44-128.68,138.44-49.58,0-72.99-21.32-109.23-45.26v-97.18c52.21,42.6,73.28,58.58,112.68,58.58,30.38,0,42.39-15.97,42.39-42.6,0-74.52-162.51-46.57-162.51-210.3,0-78.55,32.53-130.45,116.68-130.45,40.51,0,65.79,10.64,111.64,35.95v87.84m-1263.22-119.72c74.57,0,107.34,62.55,107.34,130.46,0,49.26-20.25,86.53-61.81,110.49-11.56,4.92-17.54,6.43-26.18,8.54l125.28,204.41h-88.17l-118.01-185.02v185.02h-79.66V183.47h141.19Zm-61.54,186.35h37.03c25.57,0,50.08-13.31,50.08-51.91,0-34.62-18.12-51.89-52.21-51.89h-34.89v103.8h0Zm585.81,267.55h-86.04l-29.82-90.5h-141.19l-26.65,90.5h-84.97l135.06-453.89h83.67l149.94,453.89h0Zm-190.17-346.08l-42.36,177.04h90.03l-47.67-177.04h0Zm216.78-107.81h79.63v453.9h-79.63V183.48h0Zm449.39,453.89h-65.78l-167.58-291.49v291.49h-79.66V183.48h72.2l161.15,276.86V183.48h79.68v453.89m-1256.04-250.23c30.92-18.64,50.09-51.92,50.09-90.52,0-20.12-3.93-42.07-13.9-61.26-23.66,20.95-47.41,41.8-71.24,62.56,1.52,5.24,2.3,10.69,2.3,16,0,23.95-12.77,49.26-45.84,49.26h-26.09v-108.13l95.09-62.32c-13.66-5.8-30.02-9.28-49.79-9.28h-124.95v453.9h133.18c106.58,0,128.96-81.18,128.96-133.1s-25.58-99.84-77.8-117.12m-75.37,166.4h-29.31v-106.49h42.07c31.99,0,55.43,17.28,55.43,50.56,0,39.97-18.1,55.94-68.19,55.94"/>
    <path class="cls-1" d="m1072.15,130.13c-5.01-3.12-63.27,33.14-99.89,58.66l-13.46,9.32-93.71,62.91v69.71c20.09-13.68,36.27-26.52,47.87-38.14l70.12-60.06s35.06-31.5,53.44-49.92l6.85-6.38c5.13-4.63,8.62-7.76,8.62-12.1,0-.22-.01-.48-.05-.71-.21-2.45,22.42-31.92,20.21-33.29m-367.53,296.28l57.05-38.74v-69.8l-51.16,33.35s-45.56,29.58-61.48,39.93c1.18-9,2.41-18.48,2.41-18.48,8.02-59.35,15.41-118.61,15.41-158,0-19.07-1.72-33.51-5.95-41.04-3-5.34-7.58-8.78-13.21-9.95-7.48-1.52-16.19,1.1-24.52,7.41-26.14,18.2-39.12,71.45-39.12,161.83,0,29.23,1.42,62.48,4.12,99.52l-18.06,16.29c.2-.18-25.87,22.76-25.87,22.76-.02.01-.68.88-1.12,1.44-24.15,21.33-39.36,33.31-45.16,35.58-7.21,2.85-13.55,3.48-19.23,2.95,32.79-24.21,59.56-76.01,59.56-106.8,0-3.53-.36-6.81-1.11-9.7-5.34-21.07-15.96-36.38-30.76-44.3-14.48-7.73-32.01-8.05-52.1-.89l-7.84,3.17c-36.17,16.38-146.21,78.22-180.33,97.5,4.03-48.27,23.85-268.32,29.37-384.39,3.59-74.97,0-28.48,0-43.04,0-54.51-68.49.03-106.41,37.94-15.91,15.91-65.65,61.35-47.64,95.94,19.36,37.2,39.8,24.76,50.5,88.8,18.82,112.61,4.44,228.04,4.47,235.48-6.18,2.89-53.36,25.11-53.36,25.11C61.78,543.88,0,572.46,0,619.39c0,7.32,1.51,15.05,4.66,23.35,67.45,176.43,159.39,271.34,195.63,261.74,52.57-14,54.71-83.06,57.95-187.57,1.61-52.13,3.5-111.15,11.51-177.54,4.24-2.67,92.57-68.43,108.99-78.94-7.87,16.02-7.81,31.5-7.81,39.84,0,20.78,2.98,37.91,7.21,46.73,7.1,14.87,13.41,25.97,29.63,33.27,20.62,9.84,38.49,12.58,73.62-1.22,15.8-6.21,42.84-24.96,72.9-50.16,5.99,10.26,32.04,55.11,32.04,55.11l23.87,40.68c10.77,19.14,27.86,24.56,46.9,14.84,14.47-7.26,24.03-13.6,26.88-22.93.6-1.95.85-3.86.85-5.76,0-6.28-2.81-12.23-5.47-16.99-27.41-48.78-29.24-91.29-29.24-123.62,0-2.1,0-4.13.01-6.13,4.69-3.27,54.48-37.69,54.48-37.69M167.87,760.52c-21.58-17.47-31.8-32.22-47.59-70.42-26.7-64.59,10.29-84.55,77.29-122.57-7.98,68.77-13.54,209.18-29.71,192.98m266.96-275.97c-.93-24.21-5.97-55.4,25.19-71.95,12.17-6.61,19.25-2.41,23.34,1.71,8.2,8.23-10.18,46.34-48.54,70.24"/>
  </g>
</svg>