<?xml version="1.0" encoding="UTF-8"?>
<svg id="Layer_2" data-name="Layer 2" xmlns="http://www.w3.org/2000/svg" viewBox="0 0 640.4 107.03">
  <defs>
    <style>
      .cls-1 {
        fill: #fff;
        fill-rule: evenodd;
        stroke-width: 0px;
      }
    </style>
  </defs>
  <g id="katman_1" data-name="katman 1">
    <g>
      <path class="cls-1" d="m53.9,107.03v-20.7c22.2,0,39.3-21.8,30.9-44.9-3.1-8.6-10-15.4-18.7-18.5-23.3-8.4-45.3,8.6-45.3,30.6H0C0,18.43,34.1-8.77,71.2,2.63c16.2,5,29,17.8,34.1,33.8,11.5,36.7-16,70.6-51.4,70.6"/>
      <path class="cls-1" d="m54,86.33h-20.8v-20.7h20.8v20.7m-20.9,15.9h-16v-15.9h16v15.9h0m-16-15.9H3.7v-13.3h13.4v13.3m144-51.4h6.1c6.8,0,12.5,1.3,16.7,4,4.7,2.8,7.1,8.2,7.1,16s-2.4,13.7-7.2,16.7h0c-4.1,2.7-9.7,4-16.6,4h-6.2c.1,0,.1-40.7.1-40.7Zm31-4c-6.2-4.3-13.9-6.4-22.9-6.4h-19.6v61.6h19.6c9,0,16.7-2.3,22.9-6.8,3.4-2.4,6-5.7,7.9-9.9,1.8-4.2,2.8-9,2.8-14.5s-.9-10.3-2.8-14.4c-1.8-4.1-4.5-7.3-7.9-9.6h0Zm24.3-7.2c-1.9,0-3.5.7-4.8,2-1.3,1.2-2,2.8-2,4.7s.7,3.5,2,4.8,2.9,2,4.8,2,3.5-.7,4.8-2,2-2.9,2-4.8-.7-3.4-2-4.7c-1.3-1.3-2.9-2-4.8-2m-5.6,62.3h11v-43.4h-11v43.4Zm48.1-14.1c-1.9,2.2-4.4,3.2-7.5,3.2s-5.6-1.1-7.5-3.2c-1.9-2.2-2.8-5-2.8-8.5s1-6.4,2.8-8.6c1.9-2.1,4.4-3.2,7.5-3.2s5.6,1.1,7.5,3.2c1.9,2.2,2.9,5.1,2.9,8.6s-1,6.4-2.9,8.5Zm2.9-25.6c-3.3-2.9-7-4.6-11-4.6-6.1,0-11.1,2.1-15,6.2s-5.9,9.3-5.9,15.6,2,11.3,5.8,15.5c3.9,4.1,9,6.1,15.1,6.1,4.2,0,7.9-1.2,10.9-3.5v1c0,3.6-1,6.4-2.9,8.3s-4.6,2.9-7.9,2.9c-5.1,0-8.3-2-12.1-7.2l-7.5,7.1.2.3c1.6,2.3,4.1,4.5,7.4,6.6s7.4,3.1,12.2,3.1c6.5,0,11.8-2,15.7-5.9,3.9-4,5.9-9.3,5.9-15.7v-39.4h-10.8l-.1,3.6h0Zm20.2,39.7h11v-43.4h-11v43.4Zm5.6-62.3c-1.9,0-3.5.7-4.8,2-1.3,1.2-2,2.8-2,4.7s.7,3.5,2,4.8,2.9,2,4.8,2,3.5-.7,4.8-2,2-2.9,2-4.8-.7-3.4-2-4.7c-1.3-1.3-2.9-2-4.8-2m29.5,7.3h-10.8v11.7h-6.3v9.9h6.3v18c0,5.6,1.1,9.7,3.4,12,2.2,2.3,6.2,3.5,11.9,3.5,1.8,0,3.6-.1,5.3-.2h.5v-9.9l-3.8.2c-2.6,0-4.4-.5-5.2-1.4-.8-.9-1.3-2.8-1.3-5.7v-16.5h10.2v-9.9h-10.2v-11.7m61.9,55h11V24.43h-11v61.6Zm122.1-15.5c-2,2.2-4,4.1-5.5,5.1h0c-1.5,1-3.4,1.5-5.7,1.5-3.2,0-5.8-1.2-8-3.6-2.1-2.4-3.2-5.5-3.2-9.2s1.1-6.8,3.1-9.1c2.1-2.4,4.7-3.6,7.9-3.6,3.5,0,7.3,2.2,10.5,5.9l7.3-6.9c-4.7-6.1-10.8-9-18-9-6,0-11.3,2.2-15.6,6.5s-6.4,9.7-6.4,16.2,2.2,11.9,6.4,16.2c4.3,4.3,9.5,6.5,15.6,6.5,8,0,14.4-3.4,18.7-9.7l-7.1-6.8m21.1-11.5c.5-2.1,1.5-3.8,2.9-5.1,1.5-1.5,3.4-2.2,5.8-2.2,2.7,0,4.7.8,6.1,2.2,1.3,1.4,2,3.1,2.2,5.1h-17Zm24.1-10.3c-1.6-2.2-3.7-3.9-6.3-5.2-2.6-1.3-5.7-1.9-9.1-1.9-6.1,0-11.2,2.2-14.9,6.7-3.7,4.4-5.5,9.9-5.5,16.3s2,12,6.1,16.2c4,4.1,9.3,6.2,15.9,6.2,7.4,0,13.5-3,18.1-8.8l.2-.3-7.2-6.8c-.7.8-1.6,1.7-2.5,2.5-1.1,1-2.1,1.8-3.2,2.3-1.6.8-3.5,1.2-5.6,1.2-3,0-5.6-.9-7.5-2.6-1.8-1.6-2.9-3.9-3.1-6.6h29.1l.1-4c0-2.8-.4-5.5-1.2-8.1-.7-2.5-1.9-4.9-3.4-7.1h0Zm22.7,20.8c1.2-.9,3-1.3,5.2-1.3,2.6,0,5.5.5,8.4,1.6v4.3c-2.4,2.2-5.6,3.3-9.5,3.3-1.9,0-3.4-.4-4.4-1.2-1-.8-1.5-1.8-1.5-3.2,0-1.6.6-2.7,1.8-3.5h0Zm19.5-23.6h0c-3.3-2.8-7.9-4.3-13.7-4.3-3.7,0-7.1.8-10.2,2.4-2.9,1.4-5.7,3.8-7.5,6.9l.1.1,7,6.7c2.9-4.6,6.1-6.2,10.4-6.2,2.3,0,4.2.6,5.7,1.8,1.5,1.2,2.2,2.7,2.2,4.7v2.1c-2.7-.8-5.4-1.2-8.1-1.2-5.5,0-9.9,1.3-13.2,3.8-3.4,2.6-5.1,6.2-5.1,10.8,0,4.1,1.4,7.4,4.3,9.8,2.9,2.4,6.4,3.6,10.6,3.6s8.1-1.7,11.7-4.5v3.6h10.8v-27.9c.1-5.2-1.6-9.3-5-12.2h0Zm47.4.9c-3.1-3.4-7.4-5.1-12.8-5.1-4.4,0-7.9,1.2-10.6,3.7v-2.7h-10.8v43.4h11v-23.9c0-3.3.8-5.9,2.3-7.8s3.7-2.8,6.5-2.8c2.5,0,4.4.8,5.8,2.5,1.4,1.7,2.1,4,2.1,6.8v25.1h11v-25.1c.1-6-1.4-10.7-4.5-14.1m-290.3,22.7c1.2-.9,3-1.3,5.2-1.3,2.6,0,5.5.5,8.4,1.6v4.3c-2.4,2.2-5.6,3.3-9.5,3.3-1.9,0-3.4-.4-4.4-1.2-1-.8-1.5-1.8-1.5-3.2,0-1.6.6-2.7,1.8-3.5Zm19.5-23.6h0c-3.3-2.8-7.9-4.3-13.7-4.3-3.7,0-7.1.8-10.2,2.4-2.9,1.4-5.7,3.8-7.5,6.9l.1.1,7,6.7c2.9-4.6,6.1-6.2,10.4-6.2,2.3,0,4.2.6,5.7,1.8,1.5,1.2,2.2,2.7,2.2,4.7v2.1c-2.7-.8-5.4-1.2-8.1-1.2-5.5,0-9.9,1.3-13.2,3.8-3.4,2.6-5.1,6.2-5.1,10.8,0,4.1,1.4,7.4,4.3,9.8s6.4,3.6,10.6,3.6,8.1-1.7,11.7-4.5v3.6h10.8v-27.9c.1-5.2-1.6-9.3-5-12.2h0Zm64.8-11.2c-11.4,0-20.7,9.2-20.7,20.6s9.3,20.6,20.7,20.6,20.7-9.2,20.7-20.6-9.3-20.6-20.7-20.6Zm0,52.3c-17.6,0-32-14.2-32-31.7s14.4-31.7,32-31.7,32,14.2,32,31.7-14.4,31.7-32,31.7Z"/>
    </g>
  </g>
</svg>