<?xml version="1.0" encoding="UTF-8"?>
<svg id="Layer_2" data-name="Layer 2" xmlns="http://www.w3.org/2000/svg" viewBox="0 0 425.7 128.5">
  <defs>
    <style>
      .cls-1 {
        fill: #fff;
        fill-rule: evenodd;
        stroke-width: 0px;
      }
    </style>
  </defs>
  <g id="katman_1" data-name="katman 1">
    <path class="cls-1" d="m264.1,100.5c-24.7,18.2-60.6,28-91.5,28-43.3,0-82.3-16-111.8-42.6-2.3-2.1-.2-4.9,2.5-3.3,31.8,18.5,71.2,29.7,111.8,29.7,27.4,0,57.6-5.7,85.3-17.4,4.3-2,7.8,2.5,3.7,5.6"/>
    <path class="cls-1" d="m274.4,88.7c-3.2-4-20.9-1.9-28.9-1-2.4.3-2.8-1.8-.6-3.3,14.1-10,37.3-7.1,40.1-3.7,2.7,3.4-.7,26.6-14,37.7-2,1.7-4,.8-3.1-1.5,2.9-7.5,9.6-24.2,6.5-28.2"/>
    <path class="cls-1" d="m246,14.1V4.4c0-1.3,1-2.4,2.3-2.4h43.4c1.4,0,2.5,1,2.5,2.4v8.3c0,1.4-1.2,3.2-3.3,6.1l-22.4,32c8.3-.2,17.1,1,24.7,5.3,1.7,1,2.2,2.4,2.3,3.8v10.3c0,1.4-1.6,3.1-3.2,2.2-13.3-7-31-7.7-45.8.1-1.5.8-3.1-.8-3.1-2.2v-9.8c0-1.6,0-4.3,1.6-6.7l26-37.3h-22.6c-1.2.1-2.4-.9-2.4-2.4m-158,60.4h-13.2c-1.2-.1-2.2-1-2.4-2.2V4.7c0-1.4,1.1-2.4,2.5-2.4h12.3c1.3.1,2.3,1,2.4,2.3v8.8h.2c3.2-8.5,9.2-12.5,17.3-12.5s13.4,4,17.1,12.5c3.2-8.5,10.4-12.5,18.2-12.5,5.5,0,11.6,2.3,15.3,7.4,4.2,5.7,3.3,14,3.3,21.2v42.7c0,1.4-1.2,2.5-2.5,2.4h-13.2c-1.3-.1-2.3-1.1-2.4-2.4v-35.8c0-2.9.3-10-.4-12.7-1-4.5-3.9-5.8-7.7-5.8-3.2,0-6.5,2.1-7.9,5.5-1.3,3.4-1.2,9.1-1.2,13v35.8c0,1.4-1.2,2.5-2.5,2.4h-13.2c-1.3-.1-2.4-1.1-2.4-2.4v-35.8c0-7.5,1.2-18.6-8.1-18.6s-9.1,10.8-9.1,18.6v35.8c.2,1.2-1,2.3-2.4,2.3h0M331.6.8c19.6,0,30.1,16.8,30.1,38.1s-11.7,37-30.1,37-29.7-16.8-29.7-37.7c0-21.1,10.6-37.4,29.7-37.4m.1,13.8c-9.7,0-10.3,13.2-10.3,21.5s-.1,25.9,10.2,25.9,10.7-14.2,10.7-22.9c0-5.7-.2-12.5-2-17.9-1.5-4.8-4.4-6.6-8.6-6.6m55.4,59.9h-13.1c-1.3-.1-2.3-1.1-2.4-2.4V4.5c.1-1.3,1.2-2.2,2.5-2.2h12.2c1.1,0,2.1.8,2.4,1.9v10.3h.2c3.7-9.2,8.9-13.7,18-13.7,5.9,0,11.7,2.1,15.4,8,3.4,5.4,3.4,14.5,3.4,21.1v42.6c-.2,1.2-1.3,2.1-2.5,2.1h-13.2c-1.2-.1-2.2-1-2.3-2.1v-36.7c0-7.4.9-18.2-8.3-18.2-3.2,0-6.2,2.2-7.6,5.4-1.9,4.1-2.1,8.2-2.1,12.8v36.4c-.1,1.2-1.2,2.3-2.6,2.3m-175.6-32.3c0,5.1.1,9.4-2.5,14-2.1,3.7-5.4,6-9.1,6-5.1,0-8-3.9-8-9.5,0-11.2,10.1-13.3,19.6-13.3v2.8m13.3,32.1c-.9.7-2.1.9-3.1.3-4.4-3.6-5.2-5.3-7.6-8.8-7.2,7.4-12.4,9.6-21.7,9.6-11.1,0-19.7-6.8-19.7-20.5,0-10.7,5.8-18,14.1-21.5,7.2-3.2,17.1-3.7,24.8-4.6v-1.7c0-3.1.2-6.8-1.6-9.6-1.6-2.4-4.7-3.4-7.4-3.4-5,0-9.5,2.6-10.6,7.9-.2,1.2-1.1,2.4-2.3,2.4l-12.8-1.4c-1.1-.2-2.3-1.1-2-2.8,2.9-15.5,16.9-20.2,29.5-20.2,6.4,0,14.8,1.7,19.9,6.6,6.4,6,5.8,14,5.8,22.7v20.6c0,6.2,2.6,8.9,5,12.2.8,1.2,1,2.6-.1,3.5-3.5,2.9-6.8,5.8-10.2,8.7h0M38.8,42.2c0,5.1.1,9.4-2.5,14-2.1,3.7-5.4,6-9.1,6-5.1,0-8-3.9-8-9.5,0-11.2,10.1-13.3,19.6-13.3v2.8m13.3,32.1c-.9.7-2.1.9-3.1.3-4.4-3.6-5.2-5.3-7.6-8.8-7.2,7.4-12.3,9.6-21.7,9.6-11.1,0-19.7-6.8-19.7-20.5,0-10.7,5.8-18,14.1-21.5,7.2-3.2,17.1-3.7,24.8-4.6v-1.7c0-3.1.2-6.8-1.6-9.6-1.6-2.4-4.7-3.4-7.4-3.4-5,0-9.5,2.6-10.6,7.9-.2,1.2-1.1,2.4-2.3,2.4l-12.8-1.4c-1.1-.2-2.3-1.1-2-2.8C5.1,4.7,19.1,0,31.7,0c6.4,0,14.8,1.7,19.8,6.6,6.4,6,5.8,14,5.8,22.7v20.6c0,6.2,2.6,8.9,5,12.2.9,1.2,1,2.6,0,3.5-3.5,2.9-6.9,5.8-10.2,8.7h0"/>
  </g>
</svg>