<?xml version="1.0" encoding="UTF-8"?>
<svg id="Layer_2" data-name="Layer 2" xmlns="http://www.w3.org/2000/svg" viewBox="0 0 2233.83 491.55">
  <defs>
    <style>
      .cls-1 {
        fill: #fff;
        stroke-width: 0px;
      }
    </style>
  </defs>
  <g id="katman_1" data-name="katman 1">
    <g>
      <path class="cls-1" d="m837.34,242.38c0,31.37-5.71,58.88-17.14,82.5-11.46,23.62-27.89,41.82-49.33,54.55-21.44,12.73-46.12,19.12-74.07,19.12s-50.99-6.2-72.02-18.59c-21.05-12.4-37.29-29.99-48.8-52.83-11.51-22.79-17.28-48.64-17.28-77.55,0-31.11,5.83-58.49,17.48-82.2,11.62-23.68,28.36-41.87,50.13-54.54,21.78-12.68,46.99-19.02,75.61-19.02,26.17,0,49.64,6.24,70.4,18.7,20.74,12.46,36.77,30.01,48.07,52.6,11.3,22.59,16.95,48.36,16.95,77.26m-36.16,4.52c0-38.37-8.98-68.3-26.91-89.8-17.98-21.49-42.97-32.25-75-32.25-20.14,0-38.2,5.11-54.15,15.31-15.95,10.2-28.32,24.68-37.1,43.47-8.76,18.79-13.15,39.73-13.15,62.87s4.22,44.57,12.65,62.99c8.43,18.43,20.43,32.67,36.05,42.74,15.63,10.05,33.37,15.12,53.23,15.12,32.6,0,58.15-10.69,76.65-32.07,18.5-21.39,27.74-50.86,27.74-88.38m184.31-135.41c-6.59-3.72-14.04-5.55-22.41-5.55-23.56,0-35.34,14.87-35.34,44.61v32.45h49.31v28.55h-49.31v181.86h-33.7v-181.86h-35.75v-28.55h35.75v-34.11c0-21.4,6.3-38.65,18.9-51.78,12.61-13.16,28.65-19.74,48.1-19.74,10.27,0,18.4,1.24,24.45,3.72v30.41h0s0,0,0,0Z"/>
      <path class="cls-1" d="m1101.63,111.49c-6.58-3.72-14.04-5.55-22.4-5.55-23.56,0-35.34,14.87-35.34,44.61v32.45h49.31v28.55h-49.31v181.86h-33.72v-181.86h-35.75v-28.55h35.75v-34.11c0-21.4,6.3-38.65,18.91-51.78,12.61-13.16,28.64-19.74,48.09-19.74,10.28,0,18.41,1.24,24.45,3.72v30.4s0,0,0,0Zm62.14-3.91c0,6.31-2.19,11.54-6.57,15.7-4.39,4.19-9.58,6.26-15.61,6.26s-11.39-2-15.62-6.05c-4.24-4.04-6.37-9.36-6.37-15.92,0-5.89,2.07-11,6.26-15.3,4.2-4.33,9.42-6.47,15.72-6.47s11.57,2.1,15.82,6.37c4.25,4.24,6.37,9.37,6.37,15.42m-5.75,285.8h-33.71v-210.41h33.71v210.41Zm192.33-9.64c-16.3,9.86-35.55,14.79-57.75,14.79-19.16,0-36.4-4.43-51.68-13.24-15.28-8.85-27.15-21.35-35.65-37.53-8.5-16.15-12.73-34.3-12.73-54.44,0-34.78,9.95-62.74,29.88-83.86,19.93-21.08,46.49-31.64,79.63-31.64,18.37,0,34.6,3.56,48.71,10.69v34.51c-15.76-10.95-32.47-16.43-50.14-16.43-21.78,0-39.49,7.79-53.12,23.32-13.64,15.56-20.46,35.63-20.46,60.32s6.49,43.89,19.44,58.15c12.93,14.24,30.3,21.35,52.08,21.35,18.36,0,35.62-6.01,51.79-18.09v32.08s0,0,0,0Zm207.06-87.12h-148.57c.57,23.71,6.82,41.81,18.81,54.35,11.98,12.52,28.58,18.79,49.8,18.79,23.84,0,45.56-7.67,65.17-23.01v31.45c-18.36,13.56-42.75,20.33-73.16,20.33s-53.42-9.7-70.3-29.08c-16.84-19.37-25.27-46.2-25.27-80.45,0-20.82,4.23-39.82,12.66-57.01,8.41-17.19,20.04-30.5,34.82-39.96,14.81-9.45,31.24-14.2,49.31-14.2,27.26,0,48.53,8.87,63.81,26.63,15.29,17.72,22.92,42.55,22.92,74.48v17.67h0Zm-34.51-28.57c-.28-19.44-4.98-34.55-14.09-45.32-9.1-10.75-21.94-16.13-38.51-16.13-15.62,0-28.99,5.62-40.07,16.85-11.11,11.23-18.08,26.1-20.95,44.59h113.62s0,.01,0,.01Zm290.91,41.92c0,26.58-9.52,47.98-28.56,64.22-19.04,16.23-44.06,24.34-75,24.34-28.08,0-50.42-5.35-67-16.02v-36.17c19.88,15.6,42.62,23.42,68.21,23.42,20.7,0,37.18-5.12,49.43-15.31,12.28-10.19,18.41-24,18.41-41.41,0-38.48-27.42-57.73-82.2-57.73h-24.45v-28.57h23.21c48.49,0,72.75-18.08,72.75-54.25,0-33.42-18.49-50.12-55.49-50.12-20.81,0-40.34,6.98-58.55,20.95v-32.67c18.76-11.23,41.08-16.85,66.98-16.85,24.39,0,44.07,6.45,59.08,19.43,15,12.94,22.48,29.91,22.48,50.84,0,38.78-19.59,63.7-58.76,74.81v.81c20.81,2.33,37.63,9.85,50.36,22.61,12.73,12.74,19.1,28.63,19.1,47.67m221.7-10.06c0,18.64-4,35.55-12.01,50.75-8.01,15.2-19.06,27-33.2,35.34-14.1,8.37-29.91,12.54-47.46,12.54-29.45,0-52.55-11.85-69.36-35.55-16.78-23.69-25.16-56.79-25.16-99.26,0-33.68,4.98-63.46,14.91-89.26,9.93-25.83,23.99-45.72,42.2-59.68,18.23-13.99,39.25-20.97,63.09-20.97,20.28,0,36.58,2.8,48.92,8.43v31.86c-15.21-7.81-31.25-11.71-48.1-11.71-26.03,0-46.87,11.68-62.56,35.04-15.7,23.35-23.54,54.48-23.54,93.38h.83c13.56-27.82,35.97-41.72,67.19-41.72,25.47,0,45.91,8.32,61.24,24.97,15.35,16.62,23.01,38.57,23.01,65.84m-34.51,4.31c0-20.56-5.05-36.78-15.1-48.71-10.07-11.91-24.15-17.84-42.23-17.84-16.43,0-30.26,5.77-41.51,17.36-11.23,11.54-16.83,25.58-16.83,42,0,20.7,5.57,38,16.73,51.87,11.17,13.92,25.25,20.86,42.25,20.86s30.51-6.05,40.99-18.19c10.47-12.13,15.71-27.91,15.71-47.36m232.82-.83c0,28.65-9.48,51.63-28.45,69.06-18.97,17.38-44.3,26.06-75.94,26.06-27.41,0-47.74-4.09-61.02-12.31v-35.76c19.98,12.91,40.47,19.33,61.42,19.33s37.6-5.84,50.33-17.48c12.77-11.65,19.13-27.26,19.13-46.82s-6.46-34.23-19.31-45.13c-12.89-10.88-31.58-16.32-56.09-16.32-19.6,0-36.24.8-49.94,2.44l10.06-147.73h136.25v30.41h-107.06l-5.95,86.51,27.12-1.05c30.69,0,54.94,7.77,72.74,23.25,17.8,15.47,26.71,37.34,26.71,65.54M410.03,450.59l-.04-.02V42.21L263.68,0,.66,98.76l-.66.13.03,295.27,89.75-35.13V118.79l173.89-41.57-.02,353.21L.18,394.15l263.47,97.29v.11l146.33-40.5v-.47h.04Z"/>
    </g>
  </g>
</svg>