<?xml version="1.0" encoding="UTF-8"?>
<svg id="Layer_2" data-name="Layer 2" xmlns="http://www.w3.org/2000/svg" viewBox="0 0 400 66.55">
  <defs>
    <style>
      .cls-1 {
        fill: #fff;
        stroke-width: 0px;
      }
    </style>
  </defs>
  <g id="svg4517">
    <g id="layer1">
      <path id="path4191" class="cls-1" d="m156.9,6.1c0-3.37,2.72-6.1,6.07-6.1s6.09,2.73,6.09,6.1-2.73,6.09-6.09,6.09-6.07-2.73-6.07-6.09"/>
      <path id="path4193" class="cls-1" d="m252.82,46.64c0-3.37,2.72-6.1,6.07-6.1s6.09,2.73,6.09,6.1-2.73,6.09-6.09,6.09-6.07-2.73-6.07-6.09"/>
      <path id="path4195" class="cls-1" d="m57.12,44c-5.24,0-8.87-4.16-8.87-10.1s3.64-10.1,8.87-10.1,8.94,4.16,8.94,10.1-3.6,10.1-8.94,10.1Zm0-29.07c-11.08,0-19.12,7.98-19.12,18.97s8.04,18.97,19.12,18.97,19.19-7.98,19.19-18.97-8.07-18.97-19.19-18.97"/>
      <path id="path4197" class="cls-1" d="m145.12,34.85c-.43-.81-.92-1.5-1.45-2.04l-.33-.36.35-.34c.51-.54,1.03-1.17,1.53-1.91l9.78-14.53h-11.87l-7.34,11.37c-.42.61-1.26.92-2.51.92h-1.67V6.47c0-4.3-2.68-4.88-5.57-4.88h-4.95v50.73h10.52v-15.22h.99c1.2,0,2.01.14,2.39.79l5.8,10.95c1.62,2.97,3.23,3.48,6.27,3.48h8.06l-6-9.93-3.98-7.54"/>
      <path id="path4199" class="cls-1" d="m196.17,14.85c-5.35,0-8.76,2.38-10.67,4.39l-.64.65-.23-.88c-.56-2.15-2.46-3.34-5.31-3.34h-4.71l.03,36.64h10.44v-16.89c0-1.65.21-3.08.65-4.39,1.16-3.96,4.41-6.42,8.46-6.42,3.26,0,4.53,1.72,4.53,6.17v15.96c0,3.79,1.75,5.57,5.55,5.57h4.97l-.02-23.3c0-9.26-4.52-14.15-13.06-14.15"/>
      <path id="path4201" class="cls-1" d="m163.1,15.68h-4.95l.03,28.33h0v8.3h5.28c.07,0,.12,0,.19,0h2.46s2.45,0,2.45,0h0s.02-.01.02-.01l.02-31.05c0-3.75-1.79-5.56-5.5-5.56"/>
      <path id="path4203" class="cls-1" d="m98.14,44c-5.24,0-8.88-4.16-8.88-10.1s3.65-10.1,8.88-10.1,8.94,4.16,8.94,10.1-3.6,10.1-8.94,10.1Zm0-29.07c-11.09,0-19.13,7.98-19.13,18.97s8.04,18.97,19.13,18.97,19.19-7.98,19.19-18.97-8.09-18.97-19.19-18.97"/>
      <path id="path4225" class="cls-1" d="m322,44c-5.23,0-8.88-4.16-8.88-10.1s3.65-10.1,8.88-10.1,8.95,4.16,8.95,10.1-3.6,10.1-8.95,10.1Zm0-29.07c-11.09,0-19.13,7.98-19.13,18.97s8.04,18.97,19.13,18.97,19.19-7.98,19.19-18.97-8.08-18.97-19.19-18.97"/>
      <path id="path4227" class="cls-1" d="m231.25,42.39c-5.71,0-7.74-4.98-7.74-9.65,0-2.06.52-8.76,7.19-8.76,3.32,0,7.74.95,7.74,9.11,0,7.69-3.91,9.3-7.19,9.3Zm12.61-26.81c-1.98,0-3.51.79-4.27,2.23l-.29.56-.48-.42c-1.69-1.46-4.71-3.19-9.62-3.19-9.77,0-16.34,7.33-16.34,18.25s6.8,18.52,16.54,18.52c3.32,0,5.95-.78,8.03-2.35l.81-.61v1.02c0,4.89-3.16,7.59-8.9,7.59-2.79,0-5.33-.68-7.02-1.29-2.22-.67-3.51-.12-4.41,2.11l-.83,2.05-1.17,3,.73.39c3.67,1.95,8.45,3.11,12.77,3.11,8.89,0,19.28-4.55,19.28-17.36l.04-33.6h-4.85"/>
      <path id="path4243" class="cls-1" d="m18.23,43.58h-8.5v-10.17c0-2.17.84-3.3,2.7-3.56h5.8c4.14,0,6.81,2.61,6.81,6.83,0,4.33-2.61,6.9-6.81,6.9h0Zm-8.5-27.42v-2.67c0-2.34.99-3.45,3.16-3.6h4.35c3.73,0,5.97,2.23,5.97,5.97,0,2.85-1.53,6.17-5.83,6.17h-7.65v-5.87h0Zm19.36,10.14l-1.54-.86,1.34-1.15c1.56-1.34,4.18-4.36,4.18-9.57,0-7.97-6.18-13.12-15.76-13.12H6.38s-1.24,0-1.24,0C2.3,1.71.03,4.02,0,6.87v45.26h5.01s.02,0,.02,0h12.49c10.64,0,17.51-5.8,17.51-14.77,0-4.83-2.22-8.96-5.95-11.06"/>
      <path id="path4245" class="cls-1" d="m387.84,14.97c-4.33,0-8.52,2.03-11.21,5.43l-.76.96-.59-1.07c-1.93-3.53-5.26-5.32-9.89-5.32s-8.11,2.71-9.62,4.32l-.99,1.07-.38-1.41c-.55-2.03-2.36-3.15-5.1-3.15h-4.39l-.04,36.5h9.97v-16.11c0-1.41.17-2.81.53-4.27.95-3.89,3.57-8.08,7.97-7.66,2.71.26,4.04,2.36,4.04,6.4v21.64h10.04v-16.11c0-1.76.16-3.08.56-4.41.81-3.72,3.54-7.53,7.78-7.53,3.07,0,4.21,1.74,4.21,6.41v16.3c0,3.69,1.64,5.34,5.33,5.34h4.69v-23.3c0-9.31-4.09-14.03-12.15-14.03"/>
      <path id="path4247" class="cls-1" d="m297.1,39.62s-4.32,4.56-9.97,4.56c-5.15,0-10.35-3.16-10.35-10.21,0-6.09,4.03-10.34,9.8-10.34,1.87,0,4.01.67,4.34,1.8l.05.19c.77,2.56,3.1,2.7,3.55,2.7h5.46s0-4.77,0-4.77c0-6.3-8.01-8.59-13.41-8.59-11.53,0-19.9,8.03-19.9,19.09s8.28,19.07,19.69,19.07c9.9,0,15.29-6.51,15.34-6.57l.29-.35-4.33-7.18-.57.61"/>
    </g>
  </g>
</svg>