<?xml version="1.0" encoding="UTF-8"?>
<svg id="Layer_2" data-name="Layer 2" xmlns="http://www.w3.org/2000/svg" viewBox="0 0 2499.27 780">
  <defs>
    <style>
      .cls-1 {
        fill: #fff;
        stroke-width: 0px;
      }
    </style>
  </defs>
  <g id="Layer_1-2" data-name="Layer 1">
    <path class="cls-1" d="m1317.19,195.99c0,28.11-22.65,50.75-50.76,50.75s-50.75-22.64-50.75-50.75,21.86-50.75,50.75-50.75c28.91.78,50.76,23.42,50.76,50.75Zm-209.25,102.29v12.5s-24.2-31.25-75.73-31.25c-85.1,0-151.47,64.81-151.47,154.59s65.6,154.59,151.47,154.59c52.31,0,75.73-32.01,75.73-32.01v13.27c0,6.25,4.7,10.92,10.94,10.92h63.23v-293.58h-63.23c-6.24.02-10.94,5.5-10.94,10.97h0Zm0,188.16c-11.7,17.18-35.13,32.02-63.23,32.02-49.97,0-88.23-31.23-88.23-84.33s38.27-84.32,88.23-84.32c27.33,0,52.31,15.62,63.23,32.01v104.63Zm121.02-199.1h74.95v293.58h-74.95v-293.58h0Zm1119.63-7.82c-51.53,0-75.74,31.25-75.74,31.25v-164.74h-74.95v434.89h63.25c6.25,0,10.92-5.47,10.92-10.94v-13.27s24.21,32.01,75.73,32.01c85.11,0,151.47-65.57,151.47-154.58s-66.36-154.62-150.68-154.62h0Zm-12.5,238.14c-28.9,0-51.53-14.82-63.25-32.01v-104.63c11.72-15.62,36.7-32.01,63.25-32.01,49.97,0,88.22,31.23,88.22,84.32s-38.25,84.32-88.22,84.32Zm-177.23-110.86v174.89h-74.96v-166.31c0-48.4-15.62-67.93-57.75-67.93-22.63,0-46.07,11.72-60.92,28.9v204.57h-74.93v-293.58h59.32c6.25,0,10.94,5.47,10.94,10.94v12.5c21.86-22.65,50.75-31.25,79.63-31.25,32.8,0,60.13,9.38,81.99,28.12,26.53,21.86,36.7,49.97,36.7,99.16h0Zm-450.52-127.29c-51.52,0-75.73,31.25-75.73,31.25v-164.74h-74.95v434.89h63.23c6.25,0,10.94-5.47,10.94-10.94v-13.27s24.21,32.01,75.73,32.01c85.11,0,151.47-65.57,151.47-154.58.78-89.02-65.58-154.62-150.69-154.62h0Zm-12.5,238.14c-28.88,0-51.52-14.82-63.23-32.01v-104.63c11.72-15.62,36.7-32.01,63.23-32.01,49.98,0,88.23,31.23,88.23,84.32s-38.25,84.32-88.23,84.32Zm-202.99-238.14c22.63,0,34.35,3.92,34.35,3.92v69.48s-62.46-21.08-101.49,23.43v205.34h-74.96v-294.35h63.25c6.25,0,10.92,5.47,10.92,10.94v12.5c14.07-16.4,44.52-31.25,67.94-31.25h0Zm-778.42,274.84c-3.9-9.37-7.81-19.52-11.71-28.11-6.26-14.05-12.5-27.33-17.96-39.82l-.78-.78c-53.88-117.12-111.65-235.79-172.56-352.9l-2.34-4.7c-6.41-12.15-12.65-24.38-18.73-36.7-7.82-14.06-15.62-28.88-28.11-42.95C437.29,17.18,401.37,0,363.12,0s-74.18,17.18-99.93,46.85c-11.72,14.05-20.31,28.88-28.11,42.95-6.09,12.31-12.34,24.54-18.73,36.7l-2.35,4.7c-60.12,117.11-118.67,235.78-172.55,352.9l-.79,1.55c-5.46,12.51-11.72,25.78-17.96,39.82-3.9,8.6-7.8,17.96-11.7,28.11-10.16,28.88-13.28,56.21-9.37,84.33,8.59,58.56,47.62,107.73,101.5,129.61,20.3,8.6,41.39,12.5,63.24,12.5,6.25,0,14.05-.78,20.3-1.57,25.77-3.12,52.31-11.7,78.08-26.53,32.01-17.96,62.46-43.72,96.81-81.2,34.35,37.48,65.58,63.23,96.81,81.2,25.78,14.84,52.31,23.42,78.08,26.53,6.25.8,14.06,1.57,20.31,1.57,21.86,0,43.72-3.9,63.23-12.5,54.66-21.88,92.91-71.83,101.51-129.61,6.2-27.32,3.08-54.64-7.07-83.54h0Zm-352.12,40.6c-42.17-53.09-69.5-103.06-78.86-145.21-3.9-17.96-4.69-33.58-2.34-47.63,1.55-12.5,6.25-23.43,12.5-32.8,14.84-21.07,39.82-34.35,68.71-34.35s54.66,12.5,68.72,34.35c6.25,9.37,10.93,20.31,12.5,32.8,2.33,14.06,1.55,30.45-2.35,47.63-9.4,41.37-36.73,91.34-78.88,145.21Zm311.51,36.7c-5.46,40.6-32.79,75.74-71.04,91.36-18.74,7.8-39.05,10.15-59.33,7.8-19.52-2.35-39.05-8.6-59.33-20.3-28.11-15.63-56.21-39.82-89.01-75.74,51.53-63.23,82.76-121.02,94.47-172.54,5.47-24.21,6.26-46.07,3.9-66.38-3.11-19.52-10.15-37.48-21.08-53.09-24.22-35.15-64.82-55.43-110.09-55.43s-85.88,21.08-110.08,55.43c-10.93,15.62-17.96,33.58-21.08,53.09-3.12,20.31-2.35,42.95,3.9,66.38,11.71,51.52,43.72,110.08,94.46,173.32-32.01,35.92-60.9,60.13-89.01,75.74-20.3,11.72-39.81,17.96-59.33,20.3-21.08,2.35-41.39-.78-59.34-7.8-38.25-15.62-65.58-50.76-71.04-91.36-2.34-19.52-.79-39.03,7.03-60.89,2.33-7.82,6.25-15.62,10.15-24.98,5.47-12.5,11.7-25.78,17.96-39.05l.79-1.55c53.87-116.34,111.64-235.02,171.76-350.56l2.34-4.7c6.26-11.7,12.5-24.2,18.74-35.91,6.25-12.5,13.27-24.21,21.86-34.37,16.4-18.72,38.25-28.88,62.46-28.88s46.07,10.16,62.46,28.88c8.6,10.18,15.62,21.89,21.86,34.37,6.26,11.72,12.5,24.21,18.74,35.91l2.35,4.7c59.2,116.03,116.21,233.16,170.99,351.34v.78c6.26,12.51,11.72,26.55,17.96,39.06,3.9,9.35,7.81,17.15,10.15,24.97,6.23,20.28,8.57,39.81,5.44,60.11h0Z"/>
  </g>
</svg>