<?xml version="1.0" encoding="UTF-8"?>
<svg id="Layer_2" data-name="Layer 2" xmlns="http://www.w3.org/2000/svg" viewBox="0 0 388.79 79.82">
  <defs>
    <style>
      .cls-1, .cls-2 {
        stroke-width: 0px;
      }

      .cls-2 {
        fill: #fff;
      }
    </style>
  </defs>
  <g id="SVGRoot">
    <g id="layer1">
      <g id="Layer_2-2" data-name="Layer 2">
        <g id="Layer_1-2" data-name="Layer 1-2">
          <path id="path6" class="cls-2" d="m111.66,12.46c-1.32-4.92-5.16-8.76-10.08-10.08C92.68,0,57.01,0,57.01,0c0,0-35.65,0-44.55,2.38C7.54,3.7,3.7,7.54,2.38,12.46,0,21.36,0,39.91,0,39.91c0,0,0,18.56,2.38,27.45,1.32,4.92,5.16,8.76,10.08,10.08,8.9,2.38,44.56,2.38,44.56,2.38,0,0,35.66,0,44.56-2.38,4.92-1.32,8.76-5.16,10.08-10.08,2.38-8.9,2.38-27.45,2.38-27.45,0,0,0-18.55-2.38-27.45Z"/>
          <path id="path8" class="cls-1" d="m45.61,57.02l29.63-17.11-29.63-17.11v34.22Z"/>
          <path id="path10" class="cls-2" d="m164.72,25.33v2.76c0,13.79-6.11,21.85-19.49,21.85h-2.04v24.14h-10.92V5.68h13.93c12.73,0,18.52,5.38,18.52,19.65Zm-11.5.98c0-9.95-1.79-12.31-7.99-12.31h-2.04v27.81h1.88c5.87,0,8.16-4.24,8.16-13.45v-2.05Zm37.35-3.02l-.57,12.97c-4.65-.98-8.48-.24-10.19,2.76v35.06h-10.84V24.11h8.64l.98,10.83h.41c1.14-7.91,4.81-11.9,9.54-11.9.68,0,1.36.1,2.03.25h0Zm12.47,29.58v2.53c0,8.81.49,11.83,4.24,11.83s4.4-2.76,4.48-8.48l9.7.57c.74,10.76-4.89,15.57-14.43,15.57-11.58,0-15-7.58-15-21.36v-8.74c0-14.51,3.83-21.61,15.33-21.61s14.51,6.03,14.51,21.12v8.57h-18.83Zm0-10.28v3.59h8.23v-3.56c0-9.2-.65-11.83-4.14-11.83s-4.1,2.69-4.1,11.83v-.03h.01Zm74.86-6.27v37.75h-11.24v-36.91c0-4.08-1.06-6.11-3.51-6.11-1.96,0-3.75,1.14-4.97,3.26.07.68.1,1.36.08,2.04v37.75h-11.26v-36.93c0-4.08-1.06-6.11-3.51-6.11-1.96,0-3.68,1.14-4.89,3.18v39.87h-11.25V24.12h8.89l1,6.36h.16c2.53-4.81,6.61-7.42,11.42-7.42s7.42,2.36,8.64,6.61c2.61-4.32,6.52-6.61,11.01-6.61,6.82,0,9.43,4.88,9.43,13.26Zm5.62-25.01c0-5.38,1.96-6.93,6.11-6.93s6.11,1.79,6.11,6.93c0,5.54-1.88,6.93-6.11,6.93-4.15,0-6.11-1.39-6.11-6.93Zm.66,12.8h10.76v49.99h-10.76V24.11Zm47.53,0v49.99h-8.8l-.98-6.11h-.24c-2.53,4.89-6.2,6.93-10.76,6.93-6.69,0-9.71-4.24-9.71-13.45V24.12h11.25v36.69c0,4.4.92,6.2,3.18,6.2,2.07-.08,3.92-1.31,4.8-3.18V24.12h11.26Zm57.08,12.21v37.75h-11.25v-36.91c0-4.08-1.06-6.11-3.51-6.11-1.96,0-3.75,1.14-4.97,3.26.07.67.1,1.34.08,2.02v37.75h-11.25v-36.91c0-4.08-1.06-6.11-3.51-6.11-1.96,0-3.68,1.14-4.89,3.18v39.87h-11.25V24.12h8.88l.98,6.36h.16c2.53-4.81,6.61-7.42,11.42-7.42s7.42,2.36,8.64,6.61c2.61-4.32,6.52-6.61,11.01-6.61,6.86,0,9.46,4.88,9.46,13.26Z"/>
        </g>
      </g>
    </g>
  </g>
</svg>