<?xml version="1.0" encoding="UTF-8"?>
<svg id="Layer_2" data-name="Layer 2" xmlns="http://www.w3.org/2000/svg" viewBox="0 0 1036.6 249">
  <defs>
    <style>
      .cls-1 {
        fill: #fff;
        fill-rule: evenodd;
        stroke-width: 0px;
      }
    </style>
  </defs>
  <g id="katman_1" data-name="katman 1">
    <path class="cls-1" d="m170.2,5h99.8v238.9L170.2,5Zm-70.3,0H0v238.9L99.9,5Zm35.1,88.1l63.6,150.9h-41.7l-19-48h-46.5l43.6-102.9Z"/>
    <path class="cls-1" d="m405.5,179.9l-14.2,66.1h-32.7L412.6,6.4h38.7l50.8,239.6h-33.1l-13.7-66.1h-49.8Zm45.9-26.7l-11-57.2c-3.2-16.3-6.4-37.7-8.9-54.7h-1.4c-2.5,17.4-6,39.4-9.2,54.7l-11.4,57.2h41.9ZM627,.1v201.5c0,13.2.7,32.4,1.4,44.4h-28.8l-2.1-21h-1.1c-5.7,12.1-18.8,23.8-36.3,23.8-32,0-51.5-34.8-51.5-88.5,0-61.1,25.9-89.9,53.3-89.9,13.9,0,24.9,6.4,30.9,19.5h.7V0h33.5v.1Zm-33.4,138.9c0-3.2,0-7.1-.4-10.7-1.8-15.6-10.7-29.1-22.7-29.1-21,0-28.1,29.1-28.1,61.1,0,35.5,9.2,60.4,27,60.4,7.5,0,17.4-3.9,23.1-24.5.7-2.8,1.1-7.1,1.1-11v-46.2h0Zm113,109.9c-34.5,0-59.4-29.5-59.4-88.8,0-62.9,29.5-89.6,61.1-89.6,34.1,0,58.6,30.6,58.6,88.9,0,68.6-33.8,89.6-60.1,89.6h-.2v-.1Zm1.1-26.3c20.6,0,25.2-36.6,25.2-62.9s-4.6-62.9-25.9-62.9-26.3,37-26.3,62.9c0,28.8,5,62.9,26.7,62.9h.3ZM787.1.1h33.4v92.8h.7c8.9-15.6,21-22.4,36.3-22.4,29.5,0,48,33.4,48,86.4,0,61.8-25.2,92.1-53.7,92.1-17.1,0-26.7-9.2-34.1-24.5h-1.4l-1.8,21.7h-28.8c.7-11.7,1.4-31.3,1.4-44.4V.1h0Zm33.5,184.8c0,3.9.4,7.8,1.4,10.7,5.3,21,15.6,25.2,22.4,25.2,19.9,0,27.4-26.3,27.4-61.8,0-33.1-7.8-59.7-27.7-59.7-11,0-19.9,13.2-22.4,25.6-.7,3.6-1.1,8.2-1.1,11.7v48.3h0Zm134.2-18.5c.4,44.4,19.5,55.4,39.8,55.4,12.1,0,22.4-2.8,29.9-6.4l5,24.2c-10.3,5.3-25.9,8.2-41.2,8.2-43.4,0-66.1-32.7-66.1-86,0-56.5,25.9-91.3,61.8-91.3s52.6,34.5,52.6,77.8c0,8.5-.4,13.9-.7,18.5l-81.1-.4h0Zm50.1-23.8c.4-30.6-10.3-46.9-23.5-46.9-17.4,0-25.2,25.2-26.3,46.9h49.8Z"/>
  </g>
</svg>