<?xml version="1.0" encoding="UTF-8"?>
<svg id="Layer_2" data-name="Layer 2" xmlns="http://www.w3.org/2000/svg" viewBox="0 0 413.8 150.51">
  <defs>
    <style>
      .cls-1 {
        fill-rule: evenodd;
      }

      .cls-1, .cls-2 {
        fill: #fff;
        stroke-width: 0px;
      }
    </style>
  </defs>
  <g id="katman_1" data-name="katman 1">
    <path class="cls-2" d="m188.1,102.65v-39.7h.7l28.6,39.7h9v-58.3h-10v39.6h-.7l-28.6-39.6h-9v58.3h10Zm66.6.9c13.2,0,21.3-8.6,21.3-23s-8.1-23-21.3-23-21.3,8.7-21.3,23c.1,14.4,8.1,23,21.3,23Zm0-8.4c-7,0-11-5.3-11-14.6s4-14.6,11-14.6,11,5.4,11,14.6-4,14.6-11,14.6Zm30.4-47.5v11.1h-7v8h7v24.1c0,8.6,4,12,14.2,12,1.9,0,3.8-.2,5.3-.5v-7.8c-1.2.1-2,.2-3.4.2-4.2,0-6.1-1.9-6.1-6.3v-21.7h9.5v-8h-9.5v-11.1h-10Zm25.5,55h10v-44.2h-10v44.2Zm5-51.5c3.3,0,6-2.7,6-6s-2.7-6.1-6-6.1-6,2.7-6,6.1,2.7,6,6,6h0Zm32.4,52.4c13.2,0,21.3-8.6,21.3-23s-8.1-23-21.3-23-21.3,8.7-21.3,23c0,14.4,8,23,21.3,23Zm0-8.4c-7,0-11-5.3-11-14.6s4-14.6,11-14.6,11,5.4,11,14.6c-.1,9.3-4.1,14.6-11,14.6Zm27.2,7.5h10v-25.7c0-6.5,3.8-10.6,9.7-10.6s8.9,3.4,8.9,10.1v26.2h10v-28.6c0-10.6-5.4-16.5-15.2-16.5-6.6,0-11,3-13.1,8h-.7v-7.1h-9.7c.1,0,.1,44.2.1,44.2Z"/>
    <path class="cls-1" d="m24.9,26.35c4.7,3.8,6.4,3.5,15.2,2.9l82.9-5c1.8,0,.3-1.8-.3-2l-13.8-9.9c-2.6-2-6.2-4.4-12.9-3.8L15.8,14.45c-2.9.3-3.5,1.8-2.3,2.9l11.4,9Zm5,19.3v87.2c0,4.7,2.3,6.4,7.6,6.1l91.1-5.3c5.3-.3,5.9-3.5,5.9-7.3V39.75c0-3.8-1.5-5.9-4.7-5.6l-95.2,5.6c-3.5.3-4.7,2.1-4.7,5.9h0Zm89.9,4.7c.6,2.6,0,5.3-2.6,5.6l-4.4.9v64.4c-3.8,2-7.3,3.2-10.3,3.2-4.7,0-5.9-1.5-9.4-5.9l-28.7-45.1v43.6l9.1,2s0,5.3-7.3,5.3l-20.2,1.2c-.6-1.2,0-4.1,2-4.7l5.3-1.5v-57.6l-7.3-.6c-.6-2.6.9-6.4,5-6.7l21.7-1.5,29.9,45.6v-40.3l-7.6-.9c-.6-3.2,1.8-5.6,4.7-5.9l20.1-1.1ZM9.1,6.45L92.6.35c10.2-.9,12.9-.3,19.3,4.4l26.6,18.7c4.4,3.2,5.9,4.1,5.9,7.6v102.7c0,6.4-2.3,10.2-10.5,10.8l-96.9,5.9c-6.2.3-9.1-.6-12.3-4.7l-19.7-25.5c-3.5-4.7-5-8.2-5-12.3V16.65C0,11.35,2.4,7.05,9.1,6.45Z"/>
  </g>
</svg>