<?xml version="1.0" encoding="utf-8"?>
<!-- Generator: Adobe Illustrator 27.9.0, SVG Export Plug-In . SVG Version: 6.00 Build 0)  -->
<svg version="1.1" id="Layer_1" xmlns="http://www.w3.org/2000/svg" xmlns:xlink="http://www.w3.org/1999/xlink" x="0px" y="0px"
	 viewBox="0 0 372 152" style="enable-background:new 0 0 372 152;" xml:space="preserve">
<style type="text/css">
	.st0{display:none;stroke:#000000;stroke-miterlimit:10;}
	.st1{display:none;fill:#FFFFFF;}
	.st2{fill:none;stroke:#FFFFFF;stroke-linecap:round;stroke-opacity:0.5;}
	.st3{fill:none;stroke:#FFFFFF;stroke-opacity:0.5;}
	.st4{fill:#FFFFFF;}
</style>
<rect x="-151" y="-57" class="st0" width="640" height="273"/>
<path class="st1" d="M48.5,92h-5.6V80.8h5.3c0.9,0,1.7,0.3,2.3,0.8c0.6,0.6,0.9,1.2,0.9,2.1c0,1-0.4,1.8-1.3,2.4
	c1.1,0.5,1.8,1.6,1.8,2.8c0,0.9-0.3,1.6-1,2.2C50.3,91.7,49.5,92,48.5,92z M48.5,86.8h-4.2v3.8h4.2c1.1,0,1.9-0.8,1.9-1.9
	c0-0.5-0.2-1-0.6-1.3C49.5,87,49,86.8,48.5,86.8z M48.2,82.1h-3.9v3.4h3.9c1,0,1.7-0.7,1.7-1.7S49.1,82.1,48.2,82.1z M59.5,86.2V92
	h-1.3v-8.3h1.3l3.2,5.5l3.2-5.5h1.3V92h-1.3v-5.8L63.1,91h-0.8L59.5,86.2z M75.8,85.9L70.7,92h-1.1v-8.3h1.3v6.1l5.2-6.1h1.1V92
	h-1.3V85.9z M80.8,88.4V92h-1.3v-8.3h1.3v3.4h5v-3.4h1.3V92h-1.3v-3.6H80.8z M95.7,85.9L90.5,92h-1.1v-8.3h1.3v6.1l5.2-6.1h1.1V92
	h-1.3V85.9z M99.3,88.5v-1.2h4.3v1.2H99.3z M112.8,92h-1.7l-3.7-4.3l3.4-4h1.6l-3.4,4L112.8,92z M107.1,83.7V92h-1.3v-8.3H107.1z
	 M116.1,93l0.5-1.2l-3.3-8.1h1.4l2.6,6.5l2.7-6.5h1.4l-4.1,9.7c-0.6,1.5-1.6,2.2-3,2.2h-0.4v-1.3h0.4
	C115.1,94.3,115.7,93.9,116.1,93z M124,95.6h-1.3V83.7h1.3v1.2c0.8-0.9,1.8-1.4,3-1.4c1.2,0,2.1,0.4,2.9,1.2
	c0.8,0.8,1.2,1.9,1.2,3.1c0,1.2-0.4,2.3-1.2,3.1c-0.8,0.8-1.8,1.2-2.9,1.2c-1.2,0-2.2-0.4-3-1.4V95.6z M126.9,84.8
	c-0.8,0-1.5,0.3-2,0.9c-0.5,0.6-0.8,1.3-0.8,2.1c0,0.8,0.3,1.6,0.8,2.1c0.6,0.6,1.2,0.8,2,0.8c0.8,0,1.5-0.3,2-0.8
	c0.6-0.6,0.8-1.3,0.8-2.1c0-0.8-0.3-1.6-0.8-2.1C128.4,85.1,127.7,84.8,126.9,84.8z M140.9,86l-1.3,0.4c-0.5-1-1.5-1.6-2.6-1.6
	c-0.8,0-1.5,0.3-2.1,0.9c-0.6,0.6-0.8,1.3-0.8,2.1c0,0.8,0.3,1.6,0.8,2.1c0.6,0.6,1.3,0.8,2.1,0.8c1.2,0,2.1-0.6,2.6-1.6l1.3,0.4
	c-0.7,1.5-2.2,2.5-4,2.5c-1.2,0-2.3-0.4-3.1-1.2c-0.8-0.8-1.2-1.9-1.2-3.1c0-1.2,0.4-2.3,1.2-3.1c0.8-0.8,1.9-1.2,3.1-1.2
	C138.7,83.5,140.2,84.5,140.9,86z M150.7,88.3h-7.2c0.1,0.8,0.4,1.4,1,1.9c0.6,0.5,1.2,0.7,2,0.7c1.1,0,1.9-0.4,2.5-1.2l1.3,0.4
	c-0.8,1.3-2.2,2-3.8,2c-1.3,0-2.3-0.4-3.2-1.2c-0.8-0.8-1.3-1.9-1.3-3.1c0-1.2,0.4-2.3,1.2-3.1c0.8-0.8,1.8-1.2,3.1-1.2
	s2.2,0.4,3.1,1.2c0.8,0.8,1.2,1.9,1.2,3.1C150.7,87.9,150.7,88.1,150.7,88.3z M143.6,87.2h5.8c-0.1-0.7-0.5-1.3-1-1.8
	c-0.5-0.5-1.2-0.7-1.9-0.7c-0.7,0-1.3,0.2-1.9,0.7C144,85.9,143.7,86.5,143.6,87.2z M156.8,83.7h4.3c1.2,0,2.2,0.7,2.4,1.7
	c0,0.1,0,0.2,0.1,0.3c0,0.8-0.3,1.4-0.9,1.9c0.8,0.4,1.3,1.1,1.3,2c0,0.7-0.2,1.3-0.7,1.7c-0.5,0.5-1.1,0.7-1.8,0.7h-4.6V83.7z
	 M158.2,88.3v2.4h3.3c0.7,0,1.2-0.5,1.2-1.2c0-0.7-0.5-1.2-1.2-1.2H158.2z M161.1,85h-2.9v2.1h2.9c0.7,0,1.1-0.4,1.1-1.1
	C162.2,85.4,161.8,85,161.1,85z M169.9,92h-4.1v-8.3h1.3v3h2.8c0.8,0,1.4,0.3,1.9,0.8c0.5,0.5,0.8,1.1,0.8,1.9c0,1.5-1,2.5-2.5,2.7
	H169.9z M175.2,92h-1.3v-8.3h1.3V92z M169.9,88h-2.8v2.7h2.8c0.7,0,1.3-0.6,1.3-1.4C171.2,88.6,170.6,88,169.9,88z M189.8,86
	l-1.3,0.4c-0.5-1-1.5-1.6-2.6-1.6c-0.8,0-1.5,0.3-2.1,0.9c-0.6,0.6-0.8,1.3-0.8,2.1c0,0.8,0.3,1.6,0.8,2.1c0.6,0.6,1.3,0.8,2.1,0.8
	c1.2,0,2.1-0.6,2.6-1.6l1.3,0.4c-0.7,1.5-2.2,2.5-4,2.5c-1.2,0-2.3-0.4-3.1-1.2c-0.8-0.8-1.2-1.9-1.2-3.1c0-1.2,0.4-2.3,1.2-3.1
	c0.8-0.8,1.9-1.2,3.1-1.2C187.6,83.5,189.1,84.5,189.8,86z M197.2,88.4V92h-1.3v-8.3h1.3v3.4h5v-3.4h1.3V92h-1.3v-3.6H197.2z
	 M207.7,93l0.5-1.2l-3.3-8.1h1.4l2.6,6.5l2.7-6.5h1.4l-4.1,9.7c-0.6,1.5-1.6,2.2-3,2.2h-0.4v-1.3h0.4
	C206.7,94.3,207.3,93.9,207.7,93z M213.5,92h-0.5v-1.3h0.4c0.8,0,1.2-0.9,1.2-2.6v-4.4h6.4V92h-1.3v-7h-3.8v3.4
	C215.9,90.8,215,92,213.5,92z M226.7,89l-2.1,3H223l2.1-3.1c-1.2-0.3-2.1-1.3-2.1-2.6c0-0.8,0.3-1.4,0.8-1.9
	c0.5-0.5,1.2-0.8,1.9-0.8h4.5V92h-1.3v-3H226.7z M225.7,87.7h3.2V85h-3.2c-0.7,0-1.3,0.6-1.3,1.3S224.9,87.7,225.7,87.7z M61.5,110
	l-1.3,0.4c-0.5-1-1.5-1.6-2.6-1.6c-0.8,0-1.5,0.3-2.1,0.9c-0.6,0.6-0.8,1.3-0.8,2.1c0,0.8,0.3,1.6,0.8,2.1c0.6,0.6,1.3,0.8,2.1,0.8
	c1.2,0,2.1-0.6,2.6-1.6l1.3,0.4c-0.7,1.5-2.2,2.5-4,2.5c-1.2,0-2.3-0.4-3.1-1.2c-0.8-0.8-1.2-1.9-1.2-3.1c0-1.2,0.4-2.3,1.2-3.1
	c0.8-0.8,1.9-1.2,3.1-1.2C59.3,107.5,60.8,108.5,61.5,110z M64,114.9c-0.8-0.8-1.2-1.9-1.2-3.1c0-1.2,0.4-2.3,1.2-3.1
	c0.8-0.8,1.9-1.2,3.1-1.2c1.2,0,2.3,0.4,3.1,1.2c0.8,0.8,1.2,1.9,1.2,3.1c0,1.2-0.4,2.3-1.2,3.1c-0.8,0.8-1.9,1.2-3.1,1.2
	C65.9,116.2,64.8,115.8,64,114.9z M67.1,114.8c0.8,0,1.6-0.3,2.1-0.8c0.6-0.6,0.8-1.3,0.8-2.1c0-0.8-0.3-1.6-0.8-2.1
	c-0.6-0.6-1.3-0.9-2.1-0.9c-0.8,0-1.5,0.3-2.1,0.9c-0.6,0.6-0.8,1.3-0.8,2.1c0,0.8,0.3,1.6,0.8,2.1
	C65.6,114.5,66.3,114.8,67.1,114.8z M72.6,113.9l1.4-0.4c0.4,0.9,1.1,1.4,2.3,1.4c1.3,0,2.3-0.6,2.3-1.5c0-0.7-0.6-1.2-1.3-1.2h-2
	v-1.1h2c0.7,0,1.2-0.4,1.2-1c0-0.8-0.9-1.3-2.1-1.3c-1.1,0-1.9,0.5-2.2,1.4l-1.4-0.4c0.5-1.4,1.9-2.3,3.7-2.3c1,0,1.8,0.2,2.4,0.7
	c0.7,0.5,1,1,1,1.7c0,0.7-0.4,1.3-1,1.7c0.8,0.4,1.2,1.1,1.2,1.9c0,0.7-0.3,1.3-1,1.8c-0.7,0.5-1.6,0.7-2.6,0.7
	C74.5,116.2,73.1,115.3,72.6,113.9z M82.1,116v2.4h-1.3v-3.7H82c0.5-0.4,0.7-1.4,0.7-2.8v-4.2h6.5v7h1.5v3.7h-1.3V116H82.1z
	 M83.5,114.7h4.4V109h-3.8v3C84.1,113.1,83.9,114,83.5,114.7z M95.7,107.5c1.2,0,2.3,0.4,3,1.4v-1.2h1.3v8.3h-1.3v-1.2
	c-0.8,0.9-1.8,1.4-3,1.4c-1.2,0-2.1-0.4-2.9-1.2c-0.8-0.8-1.2-1.9-1.2-3.1c0-1.2,0.4-2.3,1.2-3.1C93.6,107.9,94.5,107.5,95.7,107.5z
	 M95.8,108.8c-0.8,0-1.5,0.3-2,0.9c-0.5,0.6-0.8,1.3-0.8,2.1c0,0.8,0.3,1.6,0.8,2.1c0.6,0.6,1.2,0.8,2,0.8c0.8,0,1.5-0.3,2-0.8
	c0.6-0.6,0.8-1.3,0.8-2.1c0-0.8-0.3-1.6-0.8-2.1C97.3,109.1,96.7,108.8,95.8,108.8z M102.9,116v2.4h-1.3v-3.7h1.2
	c0.5-0.4,0.7-1.4,0.7-2.8v-4.2h6.5v7h1.5v3.7h-1.3V116H102.9z M104.3,114.7h4.4V109h-3.8v3C104.9,113.1,104.7,114,104.3,114.7z
	 M119.4,109.9l-5.2,6.1h-1.1v-8.3h1.3v6.1l5.2-6.1h1.1v8.3h-1.3V109.9z M125.3,116v-7h-3.1v-1.3h7.6v1.3h-3.1v7H125.3z M138.9,112.3
	h-7.2c0.1,0.8,0.4,1.4,1,1.9c0.6,0.5,1.2,0.7,2,0.7c1.1,0,1.9-0.4,2.5-1.2l1.3,0.4c-0.8,1.3-2.2,2-3.8,2c-1.3,0-2.3-0.4-3.2-1.2
	c-0.8-0.8-1.3-1.9-1.3-3.1c0-1.2,0.4-2.3,1.2-3.1c0.8-0.8,1.8-1.2,3.1-1.2c1.2,0,2.2,0.4,3.1,1.2c0.8,0.8,1.2,1.9,1.2,3.1
	C138.9,111.9,138.9,112.1,138.9,112.3z M131.7,111.2h5.8c-0.1-0.7-0.5-1.3-1-1.8c-0.5-0.5-1.2-0.7-1.9-0.7c-0.7,0-1.3,0.2-1.9,0.7
	C132.2,109.9,131.9,110.5,131.7,111.2z M144.4,113.7l1.3-0.4c0.5,1,1.5,1.6,2.6,1.6c0.8,0,1.4-0.2,1.9-0.7c0.5-0.5,0.9-1.1,1-1.8
	h-3.8v-1.2h3.8c-0.3-1.4-1.5-2.3-2.9-2.3c-1.2,0-2.1,0.6-2.6,1.6l-1.3-0.4c0.7-1.5,2.2-2.5,4-2.5c1.2,0,2.3,0.4,3.1,1.2
	c0.8,0.8,1.2,1.9,1.2,3.1c0,1.2-0.4,2.3-1.2,3.1c-0.8,0.8-1.9,1.2-3.1,1.2C146.6,116.2,145.1,115.2,144.4,113.7z M156.6,116v-7h-3.1
	v-1.3h7.6v1.3H158v7H156.6z M162.9,114.9c-0.8-0.8-1.2-1.9-1.2-3.1c0-1.2,0.4-2.3,1.2-3.1c0.8-0.8,1.9-1.2,3.1-1.2
	c1.2,0,2.3,0.4,3.1,1.2c0.8,0.8,1.2,1.9,1.2,3.1c0,1.2-0.4,2.3-1.2,3.1c-0.8,0.8-1.9,1.2-3.1,1.2
	C164.8,116.2,163.7,115.8,162.9,114.9z M166,114.8c0.8,0,1.6-0.3,2.1-0.8c0.6-0.6,0.8-1.3,0.8-2.1c0-0.8-0.3-1.6-0.8-2.1
	c-0.6-0.6-1.3-0.9-2.1-0.9c-0.8,0-1.5,0.3-2.1,0.9c-0.6,0.6-0.8,1.3-0.8,2.1c0,0.8,0.3,1.6,0.8,2.1
	C164.5,114.5,165.2,114.8,166,114.8z M174.3,116v-7h-3.1v-1.3h7.6v1.3h-3.1v7H174.3z M185.9,119.6h-1.3v-11.9h1.3v1.2
	c0.8-0.9,1.8-1.4,3-1.4c1.2,0,2.1,0.4,2.9,1.2c0.8,0.8,1.2,1.9,1.2,3.1c0,1.2-0.4,2.3-1.2,3.1c-0.8,0.8-1.8,1.2-2.9,1.2
	c-1.2,0-2.2-0.4-3-1.4V119.6z M188.7,108.8c-0.8,0-1.5,0.3-2,0.9c-0.5,0.6-0.8,1.3-0.8,2.1c0,0.8,0.3,1.6,0.8,2.1
	c0.6,0.6,1.2,0.8,2,0.8c0.8,0,1.5-0.3,2-0.8c0.6-0.6,0.8-1.3,0.8-2.1c0-0.8-0.3-1.6-0.8-2.1C190.2,109.1,189.6,108.8,188.7,108.8z
	 M195.6,114.9c-0.8-0.8-1.2-1.9-1.2-3.1c0-1.2,0.4-2.3,1.2-3.1c0.8-0.8,1.9-1.2,3.1-1.2c1.2,0,2.3,0.4,3.1,1.2
	c0.8,0.8,1.2,1.9,1.2,3.1c0,1.2-0.4,2.3-1.2,3.1c-0.8,0.8-1.9,1.2-3.1,1.2C197.5,116.2,196.5,115.8,195.6,114.9z M198.7,114.8
	c0.8,0,1.6-0.3,2.1-0.8c0.6-0.6,0.8-1.3,0.8-2.1c0-0.8-0.3-1.6-0.8-2.1c-0.6-0.6-1.3-0.9-2.1-0.9c-0.8,0-1.5,0.3-2.1,0.9
	c-0.6,0.6-0.8,1.3-0.8,2.1c0,0.8,0.3,1.6,0.8,2.1C197.2,114.5,197.9,114.8,198.7,114.8z M204.3,116h-0.5v-1.3h0.4
	c0.8,0,1.2-0.9,1.2-2.6v-4.4h6.4v8.3h-1.3v-7h-3.8v3.4C206.7,114.8,205.8,116,204.3,116z M220.4,109.9l-5.2,6.1h-1.1v-8.3h1.3v6.1
	l5.2-6.1h1.1v8.3h-1.3V109.9z M231.1,116h-1.7l-3.7-4.3l3.4-4h1.6l-3.4,4L231.1,116z M225.4,107.7v8.3h-1.3v-8.3H225.4z"/>
<path class="st2" d="M289.3,101c67.2,11.5,108.2-27.5,53.7-90"/>
<path class="st2" d="M352.4,37.7c-1.7-7.4-6.5-14.8-9.7-21.6c-1.9-4.1-4-8.2-6-12.3c-1.4-2.9-1.9-3.9,0.3-1.5
	c4.6,4.8,10,9.1,15.5,12.9c4.4,3,10.5,7.8,16.1,6.9"/>
<path class="st3" d="M215.3,62C110.8,33.7,20.7,50,5.2,77.5s10.2,63.1,104.5,70.5c102.9,8,145.8-3.5,159.5-20
	c23.7-28.6,0.7-84.1-190.5-97"/>
<g>
	<path class="st4" d="M37.4,89.3v-10h7.2v1.2h-5.9v3.1h5.5v1.2h-5.5v3.4h6.2v1.2H37.4z"/>
	<path class="st4" d="M51.2,86.7l1.2,0.2c-0.1,0.8-0.5,1.5-1,2s-1.2,0.7-2,0.7c-1,0-1.8-0.3-2.4-1S46,86.9,46,85.7
		c0-0.8,0.1-1.5,0.4-2.1s0.7-1,1.2-1.3s1.1-0.4,1.7-0.4c0.8,0,1.4,0.2,1.9,0.6c0.5,0.4,0.8,1,1,1.7l-1.2,0.2
		c-0.1-0.5-0.3-0.9-0.6-1.1s-0.6-0.4-1-0.4c-0.6,0-1.1,0.2-1.5,0.7s-0.6,1.1-0.6,2.1c0,1,0.2,1.7,0.6,2.1c0.4,0.4,0.9,0.7,1.5,0.7
		c0.5,0,0.9-0.1,1.2-0.4C50.9,87.7,51.1,87.3,51.2,86.7z"/>
	<path class="st4" d="M54,82.1h5.7v7.3h-1.2v-6.2h-3.3v3.6c0,0.8,0,1.4-0.1,1.7c-0.1,0.3-0.2,0.5-0.5,0.7c-0.2,0.2-0.6,0.3-1.1,0.3
		c-0.3,0-0.6,0-1-0.1v-1h0.5c0.3,0,0.4,0,0.5-0.1c0.1-0.1,0.2-0.1,0.2-0.2c0-0.1,0.1-0.5,0.1-1.1V82.1z"/>
	<path class="st4" d="M61.6,82.1h1.2v5.5l3.4-5.5h1.3v7.3h-1.2v-5.5l-3.4,5.5h-1.3V82.1z"/>
	<path class="st4" d="M73.3,82.1h1.2v3H78v-3h1.2v7.3H78v-3.2h-3.4v3.2h-1.2V82.1z"/>
	<path class="st4" d="M86,87l1.3,0.2c-0.2,0.7-0.6,1.3-1.1,1.7s-1.2,0.6-2.1,0.6c-1.1,0-1.9-0.3-2.5-1c-0.6-0.7-0.9-1.6-0.9-2.8
		c0-1.2,0.3-2.2,0.9-2.8c0.6-0.7,1.4-1,2.4-1c1,0,1.8,0.3,2.4,1c0.6,0.7,0.9,1.6,0.9,2.8c0,0.1,0,0.2,0,0.3h-5.4
		c0,0.8,0.3,1.4,0.7,1.8s0.9,0.6,1.5,0.6c0.5,0,0.8-0.1,1.2-0.4C85.6,87.9,85.8,87.5,86,87z M82,85H86c-0.1-0.6-0.2-1.1-0.5-1.4
		c-0.4-0.5-0.9-0.7-1.5-0.7c-0.6,0-1,0.2-1.4,0.6C82.2,83.8,82,84.4,82,85z"/>
	<path class="st4" d="M92.7,82.1h1.2v3h3.4v-3h1.2v7.3h-1.2v-3.2h-3.4v3.2h-1.2V82.1z"/>
	<path class="st4" d="M105.2,88.4c-0.5,0.4-0.9,0.7-1.3,0.8c-0.4,0.2-0.9,0.2-1.4,0.2c-0.8,0-1.4-0.2-1.8-0.6S100,88,100,87.4
		c0-0.4,0.1-0.7,0.2-1s0.4-0.5,0.6-0.7s0.6-0.3,0.9-0.4c0.2-0.1,0.6-0.1,1.1-0.2c1-0.1,1.7-0.3,2.2-0.4c0-0.2,0-0.3,0-0.3
		c0-0.5-0.1-0.9-0.3-1.1c-0.3-0.3-0.8-0.4-1.4-0.4c-0.6,0-1,0.1-1.3,0.3c-0.3,0.2-0.5,0.6-0.6,1.1l-1.2-0.2c0.1-0.5,0.3-0.9,0.5-1.2
		c0.3-0.3,0.6-0.6,1.1-0.7s1-0.3,1.6-0.3c0.6,0,1.1,0.1,1.5,0.2c0.4,0.1,0.7,0.3,0.9,0.6c0.2,0.2,0.3,0.5,0.4,0.8
		c0,0.2,0.1,0.6,0.1,1.1v1.6c0,1.1,0,1.9,0.1,2.2c0.1,0.3,0.2,0.6,0.3,0.9h-1.3C105.3,89.1,105.2,88.8,105.2,88.4z M105.1,85.7
		c-0.4,0.2-1.1,0.3-2,0.5c-0.5,0.1-0.9,0.2-1.1,0.2c-0.2,0.1-0.4,0.2-0.5,0.4c-0.1,0.2-0.2,0.4-0.2,0.6c0,0.3,0.1,0.6,0.4,0.8
		s0.6,0.3,1.1,0.3c0.5,0,0.9-0.1,1.3-0.3c0.4-0.2,0.6-0.5,0.8-0.9c0.1-0.3,0.2-0.7,0.2-1.2V85.7z"/>
	<path class="st4" d="M108.3,82.1h1.2v6.2h2.8v-6.2h1.2v6.2h2.8v-6.2h1.2v7.3h-9.3V82.1z"/>
	<path class="st4" d="M120.1,82.1h5.7v7.3h-1.2v-6.2h-3.3v3.6c0,0.8,0,1.4-0.1,1.7c-0.1,0.3-0.2,0.5-0.5,0.7
		c-0.2,0.2-0.6,0.3-1.1,0.3c-0.3,0-0.6,0-1-0.1v-1h0.5c0.3,0,0.4,0,0.5-0.1c0.1-0.1,0.2-0.1,0.2-0.2c0-0.1,0.1-0.5,0.1-1.1V82.1z"/>
	<path class="st4" d="M127.6,82.1h1.2v5.5l3.4-5.5h1.3v7.3h-1.2v-5.5l-3.4,5.5h-1.3V82.1z"/>
	<path class="st4" d="M139.3,82.1h1.2v3h3.4v-3h1.2v7.3H144v-3.2h-3.4v3.2h-1.2V82.1z"/>
	<path class="st4" d="M147,92.1l-0.1-1.2c0.3,0.1,0.5,0.1,0.7,0.1c0.3,0,0.5,0,0.7-0.1c0.2-0.1,0.3-0.2,0.4-0.4
		c0.1-0.1,0.2-0.4,0.4-0.9c0-0.1,0.1-0.2,0.1-0.3l-2.8-7.3h1.3l1.5,4.2c0.2,0.5,0.4,1.1,0.5,1.7c0.1-0.6,0.3-1.1,0.5-1.7l1.6-4.2
		h1.2l-2.8,7.4c-0.3,0.8-0.5,1.3-0.7,1.6c-0.2,0.4-0.5,0.7-0.8,0.9c-0.3,0.2-0.6,0.3-1,0.3C147.6,92.3,147.3,92.2,147,92.1z"/>
	<path class="st4" d="M158.6,82.1v3.1c0.4,0,0.7-0.1,0.8-0.2s0.4-0.6,0.7-1.3c0.3-0.7,0.5-1.1,0.8-1.3c0.2-0.2,0.6-0.3,1.1-0.3h0.5
		v1l-0.3,0c-0.3,0-0.5,0-0.6,0.1c-0.1,0.1-0.2,0.4-0.4,0.9c-0.2,0.5-0.4,0.8-0.5,1c-0.2,0.2-0.4,0.3-0.7,0.5
		c0.5,0.1,1.1,0.6,1.6,1.5l1.4,2.2h-1.4l-1.3-2.2c-0.3-0.5-0.5-0.8-0.7-0.9c-0.2-0.1-0.4-0.2-0.7-0.2v3.4h-1.3V86
		c-0.3,0-0.5,0.1-0.7,0.2c-0.2,0.1-0.4,0.4-0.7,0.9l-1.3,2.2h-1.4l1.3-2.2c0.5-0.8,1-1.3,1.6-1.5c-0.4-0.2-0.6-0.4-0.8-0.5
		s-0.4-0.7-0.7-1.4c-0.1-0.2-0.2-0.4-0.3-0.5c-0.1-0.1-0.3-0.1-0.5-0.1c-0.1,0-0.2,0-0.4,0v-1h0.2c0.5,0,0.8,0,1,0.1
		c0.2,0.1,0.4,0.2,0.5,0.4s0.4,0.6,0.6,1.2c0.3,0.7,0.5,1.2,0.7,1.3c0.2,0.2,0.4,0.2,0.8,0.2v-3.1H158.6z"/>
	<path class="st4" d="M163.6,82.1h1.2v3h3.4v-3h1.2v7.3h-1.2v-3.2h-3.4v3.2h-1.2V82.1z"/>
	<path class="st4" d="M171.4,82.1h1.2v2.8h1.6c1,0,1.8,0.2,2.3,0.6c0.5,0.4,0.8,0.9,0.8,1.6c0,0.6-0.2,1.1-0.7,1.6s-1.2,0.6-2.2,0.6
		h-3.1V82.1z M172.6,88.3h1.3c0.8,0,1.3-0.1,1.7-0.3s0.5-0.5,0.5-0.9c0-0.3-0.1-0.6-0.4-0.8s-0.8-0.4-1.6-0.4h-1.5V88.3z
		 M178.2,82.1h1.2v7.3h-1.2V82.1z"/>
	<path class="st4" d="M181.4,82.1h1.2v5.5l3.4-5.5h1.3v7.3h-1.2v-5.5l-3.4,5.5h-1.3V82.1z M185.7,79.3h0.8c-0.1,0.6-0.3,1-0.6,1.3
		c-0.3,0.3-0.8,0.5-1.4,0.5c-0.6,0-1-0.2-1.4-0.5c-0.3-0.3-0.6-0.7-0.6-1.3h0.8c0.1,0.3,0.2,0.5,0.4,0.7c0.2,0.2,0.4,0.2,0.8,0.2
		c0.4,0,0.6-0.1,0.8-0.2C185.5,79.9,185.6,79.6,185.7,79.3z"/>
	<path class="st4" d="M197.8,86.7l1.2,0.2c-0.1,0.8-0.5,1.5-1,2c-0.5,0.5-1.2,0.7-2,0.7c-1,0-1.8-0.3-2.4-1
		c-0.6-0.6-0.9-1.6-0.9-2.8c0-0.8,0.1-1.5,0.4-2.1s0.7-1,1.2-1.3c0.5-0.3,1.1-0.4,1.7-0.4c0.8,0,1.4,0.2,1.9,0.6
		c0.5,0.4,0.8,1,1,1.7l-1.2,0.2c-0.1-0.5-0.3-0.9-0.6-1.1c-0.3-0.2-0.6-0.4-1-0.4c-0.6,0-1.1,0.2-1.5,0.7c-0.4,0.4-0.6,1.1-0.6,2.1
		c0,1,0.2,1.7,0.6,2.1c0.4,0.4,0.9,0.7,1.5,0.7c0.5,0,0.9-0.1,1.2-0.4C197.5,87.7,197.7,87.3,197.8,86.7z"/>
	<path class="st4" d="M205.1,87l1.3,0.2c-0.2,0.7-0.6,1.3-1.1,1.7c-0.5,0.4-1.2,0.6-2.1,0.6c-1.1,0-1.9-0.3-2.5-1
		c-0.6-0.7-0.9-1.6-0.9-2.8c0-1.2,0.3-2.2,0.9-2.8c0.6-0.7,1.4-1,2.4-1c1,0,1.8,0.3,2.4,1c0.6,0.7,0.9,1.6,0.9,2.8
		c0,0.1,0,0.2,0,0.3H201c0,0.8,0.3,1.4,0.7,1.8c0.4,0.4,0.9,0.6,1.5,0.6c0.5,0,0.8-0.1,1.2-0.4C204.6,87.9,204.9,87.5,205.1,87z
		 M201,85h4.1c-0.1-0.6-0.2-1.1-0.5-1.4c-0.4-0.5-0.9-0.7-1.5-0.7c-0.6,0-1,0.2-1.4,0.6C201.3,83.8,201.1,84.4,201,85z"/>
	<path class="st4" d="M207.9,92.1v-10h1.1V83c0.3-0.4,0.6-0.6,0.9-0.8c0.3-0.2,0.7-0.3,1.2-0.3c0.6,0,1.2,0.2,1.6,0.5
		c0.5,0.3,0.8,0.8,1.1,1.4c0.2,0.6,0.4,1.2,0.4,1.9c0,0.7-0.1,1.4-0.4,2s-0.7,1-1.2,1.4c-0.5,0.3-1,0.5-1.6,0.5
		c-0.4,0-0.8-0.1-1.1-0.3c-0.3-0.2-0.6-0.4-0.8-0.7v3.5H207.9z M209,85.7c0,0.9,0.2,1.6,0.6,2.1c0.4,0.4,0.8,0.7,1.4,0.7
		c0.5,0,1-0.2,1.4-0.7c0.4-0.5,0.6-1.2,0.6-2.2c0-0.9-0.2-1.6-0.6-2.1c-0.4-0.5-0.8-0.7-1.4-0.7c-0.5,0-1,0.2-1.4,0.7
		C209.2,84.1,209,84.8,209,85.7z"/>
	<path class="st4" d="M215.7,82.1h2.8c0.7,0,1.2,0.1,1.6,0.2c0.3,0.1,0.6,0.3,0.9,0.6c0.2,0.3,0.4,0.7,0.4,1.1
		c0,0.3-0.1,0.6-0.2,0.9c-0.1,0.3-0.4,0.5-0.6,0.6c0.3,0.1,0.6,0.3,0.9,0.6c0.2,0.3,0.3,0.7,0.3,1.1c0,0.7-0.3,1.2-0.7,1.5
		c-0.4,0.3-1.1,0.5-1.9,0.5h-3.3V82.1z M216.9,85.1h1.3c0.5,0,0.9,0,1.1-0.1c0.2-0.1,0.4-0.2,0.5-0.3c0.2-0.2,0.2-0.4,0.2-0.6
		c0-0.4-0.1-0.6-0.4-0.8c-0.3-0.2-0.7-0.2-1.4-0.2h-1.4V85.1z M216.9,88.3h1.6c0.7,0,1.2-0.1,1.4-0.2c0.3-0.2,0.4-0.4,0.4-0.8
		c0-0.2-0.1-0.4-0.2-0.6s-0.3-0.3-0.6-0.4c-0.2-0.1-0.6-0.1-1.2-0.1h-1.5V88.3z"/>
	<path class="st4" d="M223.1,82.1h1.2v5.5l3.4-5.5h1.3v7.3h-1.2v-5.5l-3.4,5.5h-1.3V82.1z"/>
	<path class="st4" d="M235.7,86.7l1.2,0.2c-0.1,0.8-0.5,1.5-1,2c-0.5,0.5-1.2,0.7-2,0.7c-1,0-1.8-0.3-2.4-1
		c-0.6-0.6-0.9-1.6-0.9-2.8c0-0.8,0.1-1.5,0.4-2.1s0.7-1,1.2-1.3c0.5-0.3,1.1-0.4,1.7-0.4c0.8,0,1.4,0.2,1.9,0.6
		c0.5,0.4,0.8,1,1,1.7l-1.2,0.2c-0.1-0.5-0.3-0.9-0.6-1.1c-0.3-0.2-0.6-0.4-1-0.4c-0.6,0-1.1,0.2-1.5,0.7c-0.4,0.4-0.6,1.1-0.6,2.1
		c0,1,0.2,1.7,0.6,2.1c0.4,0.4,0.9,0.7,1.5,0.7c0.5,0,0.9-0.1,1.2-0.4C235.4,87.7,235.6,87.3,235.7,86.7z"/>
	<path class="st4" d="M238.2,89.3v-1.4h1.4v1.4c0,0.5-0.1,0.9-0.3,1.2c-0.2,0.3-0.5,0.6-0.9,0.7l-0.3-0.5c0.3-0.1,0.5-0.3,0.6-0.5
		c0.1-0.2,0.2-0.5,0.2-1H238.2z"/>
	<path class="st4" d="M49.1,106.1v-10h3.8c0.8,0,1.4,0.1,1.8,0.3c0.5,0.2,0.8,0.5,1.1,0.9c0.3,0.4,0.4,0.9,0.4,1.3
		c0,0.4-0.1,0.8-0.3,1.2s-0.6,0.7-1.1,0.9c0.6,0.2,1.1,0.5,1.4,0.9s0.5,0.9,0.5,1.5c0,0.5-0.1,0.9-0.3,1.3c-0.2,0.4-0.4,0.7-0.7,0.9
		s-0.7,0.4-1.1,0.5c-0.4,0.1-1,0.2-1.6,0.2H49.1z M50.4,100.3h2.2c0.6,0,1,0,1.3-0.1c0.3-0.1,0.6-0.3,0.8-0.5s0.3-0.5,0.3-0.9
		c0-0.3-0.1-0.6-0.2-0.9c-0.2-0.3-0.4-0.4-0.7-0.5c-0.3-0.1-0.8-0.1-1.5-0.1h-2V100.3z M50.4,104.9h2.5c0.4,0,0.7,0,0.9,0
		c0.3-0.1,0.6-0.1,0.8-0.3s0.4-0.3,0.5-0.6c0.1-0.2,0.2-0.5,0.2-0.8c0-0.4-0.1-0.7-0.3-1c-0.2-0.3-0.5-0.5-0.8-0.6
		c-0.3-0.1-0.8-0.2-1.5-0.2h-2.3V104.9z"/>
	<path class="st4" d="M58.4,98.9h1.2v2.8h1.6c1,0,1.8,0.2,2.3,0.6c0.5,0.4,0.8,0.9,0.8,1.6c0,0.6-0.2,1.1-0.7,1.6
		c-0.5,0.4-1.2,0.6-2.2,0.6h-3.1V98.9z M59.6,105.1h1.3c0.8,0,1.3-0.1,1.7-0.3s0.5-0.5,0.5-0.9c0-0.3-0.1-0.6-0.4-0.8
		s-0.8-0.4-1.6-0.4h-1.5V105.1z M65.2,98.9h1.2v7.3h-1.2V98.9z"/>
	<path class="st4" d="M72.3,98.9h1.9l1.9,5.8l2.1-5.8H80v7.3h-1.2v-5.8l-2.1,5.8h-1.1l-2-6.1v6.1h-1.2V98.9z"/>
	<path class="st4" d="M81.5,102.5c0-1.3,0.4-2.3,1.1-3c0.6-0.5,1.4-0.8,2.3-0.8c1,0,1.8,0.3,2.4,1c0.6,0.7,1,1.6,1,2.7
		c0,0.9-0.1,1.7-0.4,2.2c-0.3,0.5-0.7,1-1.2,1.2s-1.1,0.4-1.8,0.4c-1,0-1.8-0.3-2.5-1S81.5,103.7,81.5,102.5z M82.7,102.5
		c0,0.9,0.2,1.6,0.6,2.1c0.4,0.5,0.9,0.7,1.5,0.7c0.6,0,1.1-0.2,1.5-0.7s0.6-1.2,0.6-2.1c0-0.9-0.2-1.6-0.6-2
		c-0.4-0.5-0.9-0.7-1.5-0.7c-0.6,0-1.1,0.2-1.5,0.7S82.7,101.6,82.7,102.5z"/>
	<path class="st4" d="M93.9,98.9v3.1c0.4,0,0.7-0.1,0.8-0.2s0.4-0.6,0.7-1.3c0.3-0.7,0.5-1.1,0.8-1.3c0.2-0.2,0.6-0.3,1.1-0.3h0.5v1
		l-0.3,0c-0.3,0-0.5,0-0.6,0.1c-0.1,0.1-0.2,0.4-0.4,0.9c-0.2,0.5-0.4,0.8-0.5,1s-0.4,0.3-0.7,0.5c0.5,0.1,1.1,0.6,1.6,1.5l1.4,2.2
		h-1.4l-1.3-2.2c-0.3-0.5-0.5-0.8-0.7-0.9s-0.4-0.2-0.7-0.2v3.4h-1.3v-3.4c-0.3,0-0.5,0.1-0.7,0.2c-0.2,0.1-0.4,0.4-0.7,0.9
		l-1.3,2.2h-1.4l1.3-2.2c0.5-0.8,1-1.3,1.6-1.5c-0.4-0.2-0.6-0.4-0.8-0.5c-0.1-0.2-0.4-0.7-0.7-1.4c-0.1-0.3-0.2-0.4-0.3-0.5
		c-0.1-0.1-0.3-0.1-0.5-0.1c-0.1,0-0.2,0-0.4,0v-1H89c0.5,0,0.8,0,1,0.1c0.2,0.1,0.4,0.2,0.5,0.4c0.2,0.2,0.4,0.6,0.6,1.2
		c0.3,0.7,0.5,1.2,0.7,1.3s0.4,0.2,0.8,0.2v-3.1H93.9z"/>
	<path class="st4" d="M103.9,103.8l1.3,0.2c-0.2,0.7-0.6,1.3-1.1,1.7s-1.2,0.6-2.1,0.6c-1.1,0-1.9-0.3-2.5-1
		c-0.6-0.7-0.9-1.6-0.9-2.8c0-1.2,0.3-2.2,0.9-2.8s1.4-1,2.4-1c1,0,1.8,0.3,2.4,1s0.9,1.6,0.9,2.8c0,0.1,0,0.2,0,0.3h-5.4
		c0,0.8,0.3,1.4,0.7,1.8s0.9,0.6,1.5,0.6c0.5,0,0.8-0.1,1.2-0.4S103.7,104.3,103.9,103.8z M99.8,101.8h4.1c-0.1-0.6-0.2-1.1-0.5-1.4
		c-0.4-0.5-0.9-0.7-1.5-0.7c-0.6,0-1,0.2-1.4,0.6S99.9,101.2,99.8,101.8z"/>
	<path class="st4" d="M105.6,98.9h5.9v1h-2.3v6.2h-1.2v-6.2h-2.3V98.9z"/>
	<path class="st4" d="M117.5,103.8l1.3,0.2c-0.2,0.7-0.6,1.3-1.1,1.7s-1.2,0.6-2.1,0.6c-1.1,0-1.9-0.3-2.5-1
		c-0.6-0.7-0.9-1.6-0.9-2.8c0-1.2,0.3-2.2,0.9-2.8s1.4-1,2.4-1c1,0,1.8,0.3,2.4,1s0.9,1.6,0.9,2.8c0,0.1,0,0.2,0,0.3h-5.4
		c0,0.8,0.3,1.4,0.7,1.8s0.9,0.6,1.5,0.6c0.5,0,0.8-0.1,1.2-0.4S117.3,104.3,117.5,103.8z M113.4,101.8h4.1
		c-0.1-0.6-0.2-1.1-0.5-1.4c-0.4-0.5-0.9-0.7-1.5-0.7c-0.6,0-1,0.2-1.4,0.6S113.5,101.2,113.4,101.8z"/>
	<path class="st4" d="M124.1,108.9l-0.1-1.2c0.3,0.1,0.5,0.1,0.7,0.1c0.3,0,0.5,0,0.7-0.1s0.3-0.2,0.4-0.4c0.1-0.1,0.2-0.4,0.4-0.9
		c0-0.1,0.1-0.2,0.1-0.3l-2.8-7.3h1.3l1.5,4.2c0.2,0.5,0.4,1.1,0.5,1.7c0.1-0.6,0.3-1.1,0.5-1.7l1.6-4.2h1.2l-2.8,7.4
		c-0.3,0.8-0.5,1.3-0.7,1.6c-0.2,0.4-0.5,0.7-0.8,0.9c-0.3,0.2-0.6,0.3-1,0.3C124.7,109.1,124.4,109,124.1,108.9z"/>
	<path class="st4" d="M130.5,98.9h5.9v1h-2.3v6.2h-1.2v-6.2h-2.3V98.9z"/>
	<path class="st4" d="M137,102.5c0-1.3,0.4-2.3,1.1-3c0.6-0.5,1.4-0.8,2.3-0.8c1,0,1.8,0.3,2.4,1c0.6,0.7,1,1.6,1,2.7
		c0,0.9-0.1,1.7-0.4,2.2c-0.3,0.5-0.7,1-1.2,1.2s-1.1,0.4-1.8,0.4c-1,0-1.8-0.3-2.5-1S137,103.7,137,102.5z M138.2,102.5
		c0,0.9,0.2,1.6,0.6,2.1c0.4,0.5,0.9,0.7,1.5,0.7c0.6,0,1.1-0.2,1.5-0.7s0.6-1.2,0.6-2.1c0-0.9-0.2-1.6-0.6-2
		c-0.4-0.5-0.9-0.7-1.5-0.7c-0.6,0-1.1,0.2-1.5,0.7S138.2,101.6,138.2,102.5z"/>
	<path class="st4" d="M144.4,98.9h1.2v1.4c0,0.6,0,1,0.1,1.3c0.1,0.3,0.2,0.5,0.5,0.7c0.3,0.2,0.6,0.3,1,0.3c0.5,0,1.1-0.1,1.8-0.4
		v-3.3h1.2v7.3h-1.2v-2.9c-0.8,0.2-1.5,0.4-2.1,0.4c-0.6,0-1-0.1-1.5-0.4c-0.4-0.3-0.7-0.6-0.9-1s-0.2-0.9-0.2-1.3V98.9z"/>
	<path class="st4" d="M152.2,98.9h1.2v3h3.4v-3h1.2v7.3h-1.2v-3.2h-3.4v3.2h-1.2V98.9z"/>
	<path class="st4" d="M159.9,98.9h1.2v5.5l3.4-5.5h1.3v7.3h-1.2v-5.5l-3.4,5.5h-1.3V98.9z"/>
	<path class="st4" d="M167.1,98.9h5.9v1h-2.3v6.2h-1.2v-6.2h-2.3V98.9z"/>
	<path class="st4" d="M174.1,98.9h1.2v2.8h1.6c1,0,1.8,0.2,2.3,0.6c0.5,0.4,0.8,0.9,0.8,1.6c0,0.6-0.2,1.1-0.7,1.6
		c-0.5,0.4-1.2,0.6-2.2,0.6h-3.1V98.9z M175.4,105.1h1.3c0.8,0,1.3-0.1,1.7-0.3s0.5-0.5,0.5-0.9c0-0.3-0.1-0.6-0.4-0.8
		s-0.8-0.4-1.6-0.4h-1.5V105.1z"/>
	<path class="st4" d="M185.3,108.9l-0.1-1.2c0.3,0.1,0.5,0.1,0.7,0.1c0.3,0,0.5,0,0.7-0.1s0.3-0.2,0.4-0.4c0.1-0.1,0.2-0.4,0.4-0.9
		c0-0.1,0.1-0.2,0.1-0.3l-2.8-7.3h1.3l1.5,4.2c0.2,0.5,0.4,1.1,0.5,1.7c0.1-0.6,0.3-1.1,0.5-1.7l1.6-4.2h1.2l-2.8,7.4
		c-0.3,0.8-0.5,1.3-0.7,1.6c-0.2,0.4-0.5,0.7-0.8,0.9c-0.3,0.2-0.6,0.3-1,0.3C185.8,109.1,185.6,109,185.3,108.9z"/>
	<path class="st4" d="M196.2,98.9h1.2v3h3.4v-3h1.2v7.3h-1.2v-3.2h-3.4v3.2h-1.2V98.9z"/>
	<path class="st4" d="M208.7,105.2c-0.5,0.4-0.9,0.7-1.3,0.8c-0.4,0.2-0.9,0.2-1.4,0.2c-0.8,0-1.4-0.2-1.8-0.6
		c-0.4-0.4-0.6-0.9-0.6-1.5c0-0.4,0.1-0.7,0.2-1c0.2-0.3,0.4-0.5,0.6-0.7c0.3-0.2,0.6-0.3,0.9-0.4c0.2-0.1,0.6-0.1,1.1-0.2
		c1-0.1,1.7-0.3,2.2-0.4c0-0.2,0-0.3,0-0.3c0-0.5-0.1-0.9-0.3-1.1c-0.3-0.3-0.8-0.4-1.4-0.4c-0.6,0-1,0.1-1.3,0.3
		c-0.3,0.2-0.5,0.6-0.6,1.1l-1.2-0.2c0.1-0.5,0.3-0.9,0.5-1.2c0.3-0.3,0.6-0.6,1.1-0.7c0.5-0.2,1-0.3,1.6-0.3c0.6,0,1.1,0.1,1.5,0.2
		c0.4,0.1,0.7,0.3,0.9,0.6c0.2,0.2,0.3,0.5,0.4,0.8c0,0.2,0.1,0.6,0.1,1.1v1.6c0,1.1,0,1.9,0.1,2.2c0.1,0.3,0.2,0.6,0.3,0.9h-1.3
		C208.8,105.9,208.7,105.6,208.7,105.2z M208.6,102.5c-0.4,0.2-1.1,0.3-2,0.5c-0.5,0.1-0.9,0.2-1.1,0.2c-0.2,0.1-0.4,0.2-0.5,0.4
		c-0.1,0.2-0.2,0.4-0.2,0.6c0,0.3,0.1,0.6,0.4,0.8c0.2,0.2,0.6,0.3,1.1,0.3c0.5,0,0.9-0.1,1.3-0.3c0.4-0.2,0.6-0.5,0.8-0.9
		c0.1-0.3,0.2-0.7,0.2-1.2V102.5z"/>
	<path class="st4" d="M216.5,103.5l1.2,0.2c-0.1,0.8-0.5,1.5-1,2c-0.5,0.5-1.2,0.7-2,0.7c-1,0-1.8-0.3-2.4-1
		c-0.6-0.6-0.9-1.6-0.9-2.8c0-0.8,0.1-1.5,0.4-2.1s0.7-1,1.2-1.3c0.5-0.3,1.1-0.4,1.7-0.4c0.8,0,1.4,0.2,1.9,0.6
		c0.5,0.4,0.8,1,1,1.7l-1.2,0.2c-0.1-0.5-0.3-0.9-0.6-1.1c-0.3-0.2-0.6-0.4-1-0.4c-0.6,0-1.1,0.2-1.5,0.7c-0.4,0.4-0.6,1.1-0.6,2.1
		c0,1,0.2,1.7,0.6,2.1c0.4,0.4,0.9,0.7,1.5,0.7c0.5,0,0.9-0.1,1.2-0.4C216.2,104.5,216.4,104.1,216.5,103.5z"/>
	<path class="st4" d="M222.6,98.9h2.8c0.7,0,1.2,0.1,1.6,0.2c0.3,0.1,0.6,0.3,0.9,0.6c0.2,0.3,0.4,0.7,0.4,1.1
		c0,0.3-0.1,0.6-0.2,0.9c-0.1,0.3-0.4,0.5-0.6,0.6c0.3,0.1,0.6,0.3,0.9,0.6c0.2,0.3,0.3,0.7,0.3,1.1c0,0.7-0.3,1.2-0.7,1.5
		c-0.4,0.3-1.1,0.5-1.9,0.5h-3.3V98.9z M223.9,101.9h1.3c0.5,0,0.9,0,1.1-0.1c0.2-0.1,0.4-0.2,0.5-0.3c0.2-0.2,0.2-0.4,0.2-0.6
		c0-0.4-0.1-0.6-0.4-0.8c-0.3-0.2-0.7-0.2-1.4-0.2h-1.4V101.9z M223.9,105.1h1.6c0.7,0,1.2-0.1,1.4-0.2c0.3-0.2,0.4-0.4,0.4-0.8
		c0-0.2-0.1-0.4-0.2-0.6c-0.2-0.2-0.3-0.3-0.6-0.4c-0.2-0.1-0.6-0.1-1.2-0.1h-1.5V105.1z"/>
	<path class="st4" d="M88.7,122.9v-8.8h-3.3v-1.2h7.9v1.2H90v8.8H88.7z"/>
	<path class="st4" d="M97.9,120.6l1.3,0.2c-0.2,0.7-0.6,1.3-1.1,1.7s-1.2,0.6-2.1,0.6c-1.1,0-1.9-0.3-2.5-1
		c-0.6-0.7-0.9-1.6-0.9-2.8c0-1.2,0.3-2.2,0.9-2.8s1.4-1,2.4-1c1,0,1.8,0.3,2.4,1s0.9,1.6,0.9,2.8c0,0.1,0,0.2,0,0.3h-5.4
		c0,0.8,0.3,1.4,0.7,1.8s0.9,0.6,1.5,0.6c0.5,0,0.8-0.1,1.2-0.4S97.7,121.1,97.9,120.6z M93.9,118.6h4.1c-0.1-0.6-0.2-1.1-0.5-1.4
		c-0.4-0.5-0.9-0.7-1.5-0.7c-0.6,0-1,0.2-1.4,0.6S93.9,118,93.9,118.6z"/>
	<path class="st4" d="M100.7,122.9v-10h1.2v10H100.7z"/>
	<path class="st4" d="M108.8,120.6l1.3,0.2c-0.2,0.7-0.6,1.3-1.1,1.7s-1.2,0.6-2.1,0.6c-1.1,0-1.9-0.3-2.5-1
		c-0.6-0.7-0.9-1.6-0.9-2.8c0-1.2,0.3-2.2,0.9-2.8s1.4-1,2.4-1c1,0,1.8,0.3,2.4,1s0.9,1.6,0.9,2.8c0,0.1,0,0.2,0,0.3h-5.4
		c0,0.8,0.3,1.4,0.7,1.8s0.9,0.6,1.5,0.6c0.5,0,0.8-0.1,1.2-0.4S108.6,121.1,108.8,120.6z M104.8,118.6h4.1
		c-0.1-0.6-0.2-1.1-0.5-1.4c-0.4-0.5-0.9-0.7-1.5-0.7c-0.6,0-1,0.2-1.4,0.6S104.8,118,104.8,118.6z"/>
	<path class="st4" d="M111.4,123.5l1.2,0.2c0.1,0.4,0.2,0.6,0.4,0.8c0.3,0.2,0.7,0.3,1.3,0.3c0.6,0,1-0.1,1.3-0.3s0.5-0.5,0.6-1
		c0.1-0.3,0.1-0.8,0.1-1.6c-0.5,0.6-1.2,1-2,1c-1,0-1.8-0.4-2.3-1.1s-0.8-1.6-0.8-2.6c0-0.7,0.1-1.3,0.4-1.9c0.3-0.6,0.6-1,1.1-1.4
		s1-0.5,1.7-0.5c0.9,0,1.6,0.3,2.1,1v-0.9h1.1v6.3c0,1.1-0.1,1.9-0.3,2.4c-0.2,0.5-0.6,0.8-1.1,1.1s-1.1,0.4-1.8,0.4
		c-0.9,0-1.6-0.2-2.1-0.6C111.6,124.9,111.4,124.3,111.4,123.5z M112.4,119.2c0,1,0.2,1.6,0.6,2.1s0.9,0.7,1.4,0.7
		c0.6,0,1-0.2,1.4-0.7c0.4-0.4,0.6-1.1,0.6-2c0-0.9-0.2-1.6-0.6-2s-0.9-0.7-1.4-0.7c-0.5,0-1,0.2-1.4,0.7
		C112.6,117.6,112.4,118.3,112.4,119.2z"/>
	<path class="st4" d="M119.4,122.9v-7.3h1.1v1.1c0.3-0.5,0.5-0.9,0.8-1s0.5-0.2,0.8-0.2c0.4,0,0.8,0.1,1.3,0.4l-0.4,1.1
		c-0.3-0.2-0.6-0.3-0.9-0.3c-0.3,0-0.5,0.1-0.7,0.2c-0.2,0.2-0.4,0.4-0.5,0.7c-0.1,0.4-0.2,0.9-0.2,1.4v3.8H119.4z"/>
	<path class="st4" d="M128.8,122c-0.5,0.4-0.9,0.7-1.3,0.8s-0.9,0.2-1.4,0.2c-0.8,0-1.4-0.2-1.8-0.6c-0.4-0.4-0.6-0.9-0.6-1.5
		c0-0.4,0.1-0.7,0.2-1c0.2-0.3,0.4-0.5,0.6-0.7s0.6-0.3,0.9-0.4c0.2-0.1,0.6-0.1,1.1-0.2c1-0.1,1.7-0.3,2.2-0.4c0-0.2,0-0.3,0-0.3
		c0-0.5-0.1-0.9-0.3-1.1c-0.3-0.3-0.8-0.4-1.4-0.4c-0.6,0-1,0.1-1.3,0.3c-0.3,0.2-0.5,0.6-0.6,1.1l-1.2-0.2c0.1-0.5,0.3-0.9,0.5-1.2
		c0.3-0.3,0.6-0.6,1.1-0.7c0.5-0.2,1-0.3,1.6-0.3c0.6,0,1.1,0.1,1.5,0.2s0.7,0.3,0.9,0.6c0.2,0.2,0.3,0.5,0.4,0.8
		c0,0.2,0.1,0.6,0.1,1.1v1.6c0,1.1,0,1.9,0.1,2.2c0.1,0.3,0.2,0.6,0.3,0.9h-1.3C128.9,122.7,128.9,122.4,128.8,122z M128.7,119.3
		c-0.4,0.2-1.1,0.3-2,0.5c-0.5,0.1-0.9,0.2-1.1,0.2s-0.4,0.2-0.5,0.4c-0.1,0.2-0.2,0.4-0.2,0.6c0,0.3,0.1,0.6,0.4,0.8
		s0.6,0.3,1.1,0.3c0.5,0,0.9-0.1,1.3-0.3c0.4-0.2,0.6-0.5,0.8-0.9c0.1-0.3,0.2-0.7,0.2-1.2V119.3z"/>
	<path class="st4" d="M131.9,122.9v-7.3h1.1v1c0.2-0.4,0.5-0.6,0.9-0.9c0.4-0.2,0.8-0.3,1.3-0.3c0.5,0,1,0.1,1.3,0.3
		s0.6,0.5,0.7,0.9c0.6-0.8,1.3-1.3,2.2-1.3c0.7,0,1.3,0.2,1.7,0.6c0.4,0.4,0.6,1,0.6,1.8v5h-1.2v-4.6c0-0.5,0-0.8-0.1-1.1
		c-0.1-0.2-0.2-0.4-0.4-0.5s-0.5-0.2-0.7-0.2c-0.5,0-0.9,0.2-1.3,0.5c-0.3,0.3-0.5,0.9-0.5,1.6v4.2h-1.2v-4.7c0-0.5-0.1-1-0.3-1.2
		s-0.5-0.4-1-0.4c-0.3,0-0.7,0.1-1,0.3s-0.5,0.4-0.6,0.8s-0.2,0.9-0.2,1.5v3.8H131.9z"/>
	<path class="st4" d="M147.4,115.7h1.2v3.1c0.4,0,0.7-0.1,0.8-0.2s0.4-0.6,0.7-1.3c0.2-0.6,0.4-1,0.6-1.1s0.3-0.3,0.5-0.4
		s0.5-0.1,0.9-0.1h0.2v1l-0.3,0c-0.3,0-0.5,0-0.6,0.1c-0.1,0.1-0.2,0.4-0.4,0.9c-0.2,0.5-0.4,0.8-0.5,1s-0.4,0.3-0.7,0.5
		c0.5,0.1,1,0.6,1.6,1.5l1.3,2.2h-1.4l-1.3-2.2c-0.3-0.5-0.5-0.7-0.7-0.9c-0.2-0.1-0.4-0.2-0.7-0.2v3.4h-1.2V115.7z"/>
	<path class="st4" d="M158.6,122c-0.5,0.4-0.9,0.7-1.3,0.8s-0.9,0.2-1.4,0.2c-0.8,0-1.4-0.2-1.8-0.6c-0.4-0.4-0.6-0.9-0.6-1.5
		c0-0.4,0.1-0.7,0.2-1c0.2-0.3,0.4-0.5,0.6-0.7s0.6-0.3,0.9-0.4c0.2-0.1,0.6-0.1,1.1-0.2c1-0.1,1.7-0.3,2.2-0.4c0-0.2,0-0.3,0-0.3
		c0-0.5-0.1-0.9-0.3-1.1c-0.3-0.3-0.8-0.4-1.4-0.4c-0.6,0-1,0.1-1.3,0.3c-0.3,0.2-0.5,0.6-0.6,1.1l-1.2-0.2c0.1-0.5,0.3-0.9,0.5-1.2
		c0.3-0.3,0.6-0.6,1.1-0.7c0.5-0.2,1-0.3,1.6-0.3c0.6,0,1.1,0.1,1.5,0.2s0.7,0.3,0.9,0.6c0.2,0.2,0.3,0.5,0.4,0.8
		c0,0.2,0.1,0.6,0.1,1.1v1.6c0,1.1,0,1.9,0.1,2.2c0.1,0.3,0.2,0.6,0.3,0.9h-1.3C158.7,122.7,158.6,122.4,158.6,122z M158.5,119.3
		c-0.4,0.2-1.1,0.3-2,0.5c-0.5,0.1-0.9,0.2-1.1,0.2s-0.4,0.2-0.5,0.4c-0.1,0.2-0.2,0.4-0.2,0.6c0,0.3,0.1,0.6,0.4,0.8
		s0.6,0.3,1.1,0.3c0.5,0,0.9-0.1,1.3-0.3c0.4-0.2,0.6-0.5,0.8-0.9c0.1-0.3,0.2-0.7,0.2-1.2V119.3z"/>
	<path class="st4" d="M161.6,115.7h1.2v3h3.4v-3h1.2v7.3h-1.2v-3.2h-3.4v3.2h-1.2V115.7z"/>
	<path class="st4" d="M174.1,122c-0.5,0.4-0.9,0.7-1.3,0.8s-0.9,0.2-1.4,0.2c-0.8,0-1.4-0.2-1.8-0.6c-0.4-0.4-0.6-0.9-0.6-1.5
		c0-0.4,0.1-0.7,0.2-1c0.2-0.3,0.4-0.5,0.6-0.7s0.6-0.3,0.9-0.4c0.2-0.1,0.6-0.1,1.1-0.2c1-0.1,1.7-0.3,2.2-0.4c0-0.2,0-0.3,0-0.3
		c0-0.5-0.1-0.9-0.3-1.1c-0.3-0.3-0.8-0.4-1.4-0.4c-0.6,0-1,0.1-1.3,0.3c-0.3,0.2-0.5,0.6-0.6,1.1l-1.2-0.2c0.1-0.5,0.3-0.9,0.5-1.2
		c0.3-0.3,0.6-0.6,1.1-0.7c0.5-0.2,1-0.3,1.6-0.3c0.6,0,1.1,0.1,1.5,0.2s0.7,0.3,0.9,0.6c0.2,0.2,0.3,0.5,0.4,0.8
		c0,0.2,0.1,0.6,0.1,1.1v1.6c0,1.1,0,1.9,0.1,2.2c0.1,0.3,0.2,0.6,0.3,0.9h-1.3C174.2,122.7,174.1,122.4,174.1,122z M174,119.3
		c-0.4,0.2-1.1,0.3-2,0.5c-0.5,0.1-0.9,0.2-1.1,0.2s-0.4,0.2-0.5,0.4c-0.1,0.2-0.2,0.4-0.2,0.6c0,0.3,0.1,0.6,0.4,0.8
		s0.6,0.3,1.1,0.3c0.5,0,0.9-0.1,1.3-0.3c0.4-0.2,0.6-0.5,0.8-0.9c0.1-0.3,0.2-0.7,0.2-1.2V119.3z"/>
	<path class="st4" d="M177.8,115.7h5.7v7.3h-1.2v-6.2H179v3.6c0,0.8,0,1.4-0.1,1.7s-0.2,0.5-0.5,0.7s-0.6,0.3-1.1,0.3
		c-0.3,0-0.6,0-1-0.1v-1h0.5c0.3,0,0.4,0,0.5-0.1c0.1-0.1,0.2-0.1,0.2-0.2s0.1-0.5,0.1-1.1V115.7z"/>
	<path class="st4" d="M190.3,120.6l1.3,0.2c-0.2,0.7-0.6,1.3-1.1,1.7c-0.5,0.4-1.2,0.6-2.1,0.6c-1.1,0-1.9-0.3-2.5-1
		c-0.6-0.7-0.9-1.6-0.9-2.8c0-1.2,0.3-2.2,0.9-2.8s1.4-1,2.4-1c1,0,1.8,0.3,2.4,1s0.9,1.6,0.9,2.8c0,0.1,0,0.2,0,0.3h-5.4
		c0,0.8,0.3,1.4,0.7,1.8s0.9,0.6,1.5,0.6c0.5,0,0.8-0.1,1.2-0.4C189.9,121.5,190.1,121.1,190.3,120.6z M186.3,118.6h4.1
		c-0.1-0.6-0.2-1.1-0.5-1.4c-0.4-0.5-0.9-0.7-1.5-0.7c-0.6,0-1,0.2-1.4,0.6C186.5,117.4,186.3,118,186.3,118.6z"/>
</g>
</svg>
